<svg width="163" height="163" viewBox="0 0 163 163" fill="none" xmlns="http://www.w3.org/2000/svg">
<path d="M45.3134 119.042C44.8785 119.042 44.4535 118.87 44.138 118.557C43.9516 118.371 43.8122 118.142 43.7314 117.891C43.6505 117.64 43.6306 117.373 43.6732 117.113C47.9863 91.0353 59.5576 82.8275 68.5058 80.5332L69.3293 83.7506C61.5963 85.7328 51.642 92.8549 47.3621 115.333C69.8406 111.054 76.966 101.096 78.9449 93.3662L82.1623 94.1897C79.8679 103.138 71.6634 114.712 45.5824 119.022C45.4961 119.036 45.4064 119.042 45.3134 119.042Z" fill="url(#paint0_linear_750_3947)"/>
<path d="M93.916 119.789C93.222 119.789 92.5181 119.65 91.8374 119.361C89.739 118.474 88.4839 116.432 88.64 114.158C89.1281 107.023 87.9128 99.0338 85.5421 93.8043L88.5669 92.4331C91.1468 98.1274 92.4749 106.744 91.9503 114.387C91.8906 115.237 92.3421 115.971 93.129 116.306C93.9126 116.638 94.756 116.452 95.3271 115.818C104.338 105.801 108.014 95.3848 108.017 79.8756H111.338C111.334 96.0754 107.284 107.487 97.7941 118.039C96.7681 119.181 95.3669 119.789 93.916 119.789ZM68.8974 77.1331C63.6679 74.7491 55.6593 73.5272 48.5007 74.0186C46.2263 74.1747 44.1876 72.9196 43.2978 70.8211C42.4113 68.7227 42.9292 66.3852 44.6226 64.8612C55.1745 55.3717 66.5997 51.3176 82.8095 51.3176H82.846V54.6379H82.8062C67.2837 54.6379 56.8646 58.3168 46.8406 67.3282C46.2064 67.8993 46.0204 68.7393 46.3525 69.5262C46.6845 70.3131 47.4216 70.7647 48.2716 70.7049C55.9415 70.1803 64.5777 71.5151 70.272 74.1116L68.8974 77.1331Z" fill="url(#paint1_linear_750_3947)"/>
<path d="M82.4408 97.3173C82.0124 97.3173 81.5841 97.1513 81.2654 96.8326L65.8624 81.4296C65.6085 81.1763 65.4436 80.8473 65.3927 80.4922C65.3418 80.1372 65.4076 79.7752 65.5802 79.4607C78.795 55.2954 89.6392 37.5949 102.854 24.0546C110.288 16.4345 117.892 10.8066 126.096 6.84877C135.084 2.51244 144.567 0.274547 155.083 0.00228153C157.141 -0.0475232 159.077 0.719469 160.528 2.16712C161.976 3.61478 162.746 5.55052 162.693 7.61244C162.424 18.1279 160.183 27.6107 155.846 36.5988C151.888 44.8033 146.26 52.4068 138.64 59.841C125.1 73.0558 107.4 83.8999 83.2343 97.1148C82.9853 97.2509 82.713 97.3173 82.4408 97.3173ZM69.0931 79.9621L82.7363 93.6052C125.592 70.114 158.323 48.6781 159.376 7.52611C159.406 6.38392 158.981 5.31478 158.184 4.51459C157.384 3.71439 156.314 3.29271 155.172 3.32259C114.02 4.37845 92.581 37.1068 69.0931 79.9621Z" fill="url(#paint2_linear_750_3947)"/>
<path d="M157.35 29.045C151.802 27.7269 146.586 24.7452 142.266 20.4288C137.95 16.1124 134.968 10.8962 133.65 5.34463L136.881 4.57764C138.059 9.52822 140.732 14.1999 144.614 18.0813C148.495 21.9661 153.167 24.639 158.117 25.8177L157.35 29.045Z" fill="url(#paint3_linear_750_3947)"/>
<path d="M117.447 59.2565C109.724 59.2565 103.442 52.9745 103.442 45.2514C103.442 37.5284 109.724 31.2463 117.447 31.2463C125.17 31.2463 131.452 37.5284 131.452 45.2514C131.452 52.9745 125.17 59.2565 117.447 59.2565ZM117.447 34.5633C111.553 34.5633 106.762 39.3579 106.762 45.2481C106.762 51.1383 111.557 55.9329 117.447 55.9329C123.337 55.9329 128.132 51.1383 128.132 45.2481C128.132 39.3579 123.341 34.5633 117.447 34.5633Z" fill="url(#paint4_linear_750_3947)"/>
<path d="M8.5673 106.963C8.1423 106.963 7.7173 106.8 7.39191 106.478C7.08092 106.167 6.90625 105.744 6.90625 105.304C6.90625 104.864 7.08092 104.442 7.39191 104.131L12.3292 99.1932C12.9767 98.5457 14.0292 98.5457 14.6767 99.1932C15.3241 99.8407 15.3241 100.893 14.6767 101.541L9.73937 106.478C9.4173 106.8 8.9923 106.963 8.5673 106.963ZM19.9759 95.5541C19.5509 95.5541 19.1259 95.3915 18.8005 95.0694C18.4895 94.7579 18.3148 94.3358 18.3148 93.8957C18.3148 93.4555 18.4895 93.0334 18.8005 92.7219L33.7751 77.7473C34.4226 77.0999 35.4751 77.0999 36.1226 77.7473C36.77 78.3948 36.77 79.4473 36.1226 80.0948L21.148 95.0694C20.8259 95.3915 20.4009 95.5541 19.9759 95.5541ZM1.66105 133.11C1.23605 133.11 0.81105 132.948 0.485659 132.625C0.174672 132.314 0 131.892 0 131.452C0 131.012 0.174672 130.589 0.485659 130.278L5.42296 125.341C6.07043 124.693 7.12296 124.693 7.77043 125.341C8.41789 125.988 8.41789 127.041 7.77043 127.688L2.83312 132.625C2.51105 132.948 2.08605 133.11 1.66105 133.11ZM13.0696 121.702C12.6446 121.702 12.2196 121.539 11.8943 121.217C11.5833 120.905 11.4086 120.483 11.4086 120.043C11.4086 119.603 11.5833 119.181 11.8943 118.869L38.7755 91.9881C39.423 91.3407 40.4755 91.3407 41.123 91.9881C41.7704 92.6356 41.7704 93.6881 41.123 94.3356L14.245 121.214C14.091 121.368 13.9078 121.491 13.7061 121.575C13.5044 121.659 13.2881 121.702 13.0696 121.702ZM57.356 155.751C56.931 155.751 56.506 155.589 56.1806 155.267C55.8696 154.955 55.6949 154.533 55.6949 154.093C55.6949 153.653 55.8696 153.231 56.1806 152.919L61.1179 147.982C61.7653 147.334 62.8179 147.334 63.4653 147.982C64.1128 148.629 64.1128 149.682 63.4653 150.329L58.528 155.267C58.206 155.589 57.781 155.751 57.356 155.751ZM68.7679 144.343C68.3429 144.343 67.9179 144.18 67.5925 143.858C67.2815 143.547 67.1068 143.124 67.1068 142.684C67.1068 142.244 67.2815 141.822 67.5925 141.511L82.5671 126.536C83.2146 125.889 84.2671 125.889 84.9146 126.536C85.562 127.183 85.562 128.236 84.9146 128.883L69.94 143.858C69.6288 144.168 69.2073 144.343 68.7679 144.343ZM31.2085 162.658C30.7835 162.658 30.3585 162.495 30.0331 162.173C29.7221 161.861 29.5475 161.439 29.5475 160.999C29.5475 160.559 29.7221 160.137 30.0331 159.825L34.9704 154.888C35.6179 154.241 36.6704 154.241 37.3179 154.888C37.9653 155.536 37.9653 156.588 37.3179 157.236L32.3806 162.173C32.2272 162.327 32.0445 162.45 31.8433 162.533C31.6421 162.616 31.4263 162.659 31.2085 162.658ZM42.6171 151.249C42.1921 151.249 41.7671 151.086 41.4417 150.764C41.1307 150.453 40.9561 150.031 40.9561 149.591C40.9561 149.15 41.1307 148.728 41.4417 148.417L68.323 121.532C68.9704 120.885 70.023 120.885 70.6704 121.532C71.3179 122.18 71.3179 123.232 70.6704 123.88L43.7892 150.764C43.4671 151.086 43.0421 151.249 42.6171 151.249Z" fill="url(#paint5_linear_750_3947)"/>
<defs>
<linearGradient id="paint0_linear_750_3947" x1="62.9068" y1="80.5332" x2="62.9068" y2="119.042" gradientUnits="userSpaceOnUse">
<stop stop-color="#0D95E9"/>
<stop offset="1" stop-color="#B2CFFF"/>
</linearGradient>
<linearGradient id="paint1_linear_750_3947" x1="77.1041" y1="51.3176" x2="77.1041" y2="119.789" gradientUnits="userSpaceOnUse">
<stop stop-color="#0D95E9"/>
<stop offset="1" stop-color="#B2CFFF"/>
</linearGradient>
<linearGradient id="paint2_linear_750_3947" x1="114.036" y1="0" x2="114.036" y2="97.3173" gradientUnits="userSpaceOnUse">
<stop stop-color="#0D95E9"/>
<stop offset="1" stop-color="#B2CFFF"/>
</linearGradient>
<linearGradient id="paint3_linear_750_3947" x1="145.884" y1="4.57764" x2="145.884" y2="29.045" gradientUnits="userSpaceOnUse">
<stop stop-color="#0D95E9"/>
<stop offset="1" stop-color="#B2CFFF"/>
</linearGradient>
<linearGradient id="paint4_linear_750_3947" x1="117.447" y1="31.2463" x2="117.447" y2="59.2565" gradientUnits="userSpaceOnUse">
<stop stop-color="#0D95E9"/>
<stop offset="1" stop-color="#B2CFFF"/>
</linearGradient>
<linearGradient id="paint5_linear_750_3947" x1="42.7001" y1="77.2617" x2="42.7001" y2="162.658" gradientUnits="userSpaceOnUse">
<stop stop-color="#0D95E9"/>
<stop offset="1" stop-color="#B2CFFF"/>
</linearGradient>
</defs>
</svg>
