<svg width="146" height="150" viewBox="0 0 146 150" fill="none" xmlns="http://www.w3.org/2000/svg">
<path d="M92.2655 150C83.0978 150 75.6395 142.542 75.6395 133.374V16.6261C75.6395 7.45834 83.0978 0 92.2655 0C100.855 0 107.943 6.54665 108.804 14.9119C115.002 15.7228 119.875 20.8052 120.362 27.0983C127.236 29.2893 131.912 35.6072 131.912 42.9354C131.912 44.7354 131.615 46.5325 131.044 48.2335C138.244 50.1186 143.423 56.658 143.423 64.3118C143.423 67.0582 142.757 69.7239 141.485 72.0998C143.804 75.0132 145.067 78.6208 145.067 82.3995C145.067 88.4174 141.867 93.8613 136.761 96.7926C137.897 98.9372 138.49 101.316 138.49 103.776C138.49 111.143 133.144 117.286 126.128 118.528C126.693 120.128 126.981 121.812 126.979 123.508C126.979 131.769 120.258 138.49 111.998 138.49C110.723 138.49 109.467 138.331 108.246 138.016C106.219 145.073 99.8028 150 92.2655 150ZM79.2935 98.8429V133.374C79.2935 140.527 85.1127 146.346 92.2655 146.346C97.5263 146.346 102.633 142.919 104.45 137.94C104.967 136.524 105.238 134.882 105.238 133.374C105.238 128.587 102.608 124.201 98.3741 121.929C97.9471 121.7 97.6287 121.31 97.4889 120.846C97.3491 120.382 97.3994 119.882 97.6286 119.455C97.8579 119.028 98.2473 118.709 98.7113 118.57C99.1753 118.43 99.6759 118.48 100.103 118.709C105.524 121.619 108.892 127.239 108.892 133.374C108.892 133.706 108.881 134.046 108.859 134.397C109.88 134.689 110.936 134.836 111.998 134.836C118.244 134.836 123.326 129.754 123.326 123.508C123.326 121.827 122.957 120.185 122.252 118.704C117.39 118.287 112.981 115.507 110.544 111.263C110.311 110.843 110.253 110.349 110.382 109.886C110.511 109.424 110.816 109.031 111.233 108.792C111.649 108.553 112.143 108.487 112.607 108.609C113.071 108.731 113.469 109.031 113.714 109.444C115.689 112.886 119.385 115.053 123.365 115.104L123.412 115.104H123.508C129.755 115.104 134.836 110.023 134.836 103.776C134.836 101.828 134.343 99.9468 133.402 98.2655C131.797 98.7714 130.124 99.0279 128.441 99.026C123.648 99.026 119.1 96.9629 115.965 93.3665C115.807 93.1857 115.687 92.9756 115.61 92.7482C115.534 92.5208 115.503 92.2805 115.519 92.0412C115.536 91.8018 115.599 91.568 115.706 91.3531C115.812 91.1383 115.96 90.9466 116.141 90.7889C116.322 90.6312 116.532 90.5107 116.76 90.4342C116.987 90.3578 117.227 90.3269 117.467 90.3432C117.706 90.3596 117.94 90.423 118.155 90.5298C118.37 90.6365 118.561 90.7845 118.719 90.9654C121.16 93.7655 124.704 95.3719 128.441 95.3719C135.543 95.3719 141.413 89.472 141.413 82.3999C141.413 79.8354 140.668 77.3733 139.284 75.2821C136.155 78.8587 131.64 80.9383 126.797 80.9383C125.787 80.9383 124.97 80.1205 124.97 79.1112C124.97 78.102 125.787 77.2842 126.797 77.2842C133.845 77.2838 139.769 71.3817 139.769 64.3122C139.769 58.1174 135.422 52.8585 129.479 51.6186C128.221 53.7676 126.721 55.4174 124.879 56.6686C126.257 58.9798 126.982 61.6211 126.979 64.3118C126.979 64.7964 126.787 65.2611 126.444 65.6037C126.102 65.9464 125.637 66.1389 125.152 66.1389C124.668 66.1389 124.203 65.9464 123.86 65.6037C123.518 65.2611 123.325 64.7964 123.325 64.3118C123.325 58.1375 118.158 52.9842 111.998 52.9842C111.513 52.9842 111.048 52.7917 110.706 52.449C110.363 52.1064 110.171 51.6417 110.171 51.1571C110.171 50.6726 110.363 50.2079 110.706 49.8652C111.048 49.5226 111.513 49.3301 111.998 49.3301C116.152 49.3301 119.916 51.0296 122.633 53.7698C124.36 52.64 125.716 51.0387 126.842 48.8233C126.854 48.7984 126.866 48.7736 126.88 48.7491C127.795 46.9334 128.258 44.9788 128.258 42.9354C128.258 35.8663 122.342 29.9635 115.286 29.9635C113.245 29.9635 111.294 30.4228 109.486 31.3286C109.054 31.5348 108.559 31.5633 108.106 31.4081C107.653 31.2528 107.28 30.9262 107.065 30.4983C106.851 30.0705 106.813 29.5756 106.959 29.12C107.106 28.6644 107.425 28.2845 107.849 28.0619C110.551 26.708 113.505 26.1175 116.585 26.3613C115.851 22.42 112.724 19.3104 108.773 18.604C108.288 22.6278 106.354 26.3373 103.333 29.039C103.154 29.1989 102.945 29.322 102.719 29.4012C102.493 29.4805 102.253 29.5144 102.013 29.5009C101.774 29.4875 101.539 29.427 101.323 29.3229C101.107 29.2188 100.913 29.0732 100.753 28.8943C100.593 28.7154 100.47 28.5068 100.391 28.2803C100.312 28.0538 100.278 27.814 100.291 27.5744C100.305 27.3349 100.365 27.1003 100.469 26.8841C100.573 26.6679 100.719 26.4744 100.898 26.3145C102.262 25.0954 103.353 23.6024 104.101 21.933C104.848 20.2636 105.236 18.4553 105.237 16.6261C105.237 9.4732 99.418 3.65408 92.2652 3.65408C85.1123 3.65408 79.2932 9.4732 79.2932 16.6261V38.0024C79.2932 42.4352 82.8994 46.0414 87.3322 46.0414C88.7448 46.0414 90.1356 45.6691 91.3535 44.9649C91.773 44.7224 92.2717 44.6564 92.7399 44.7815C93.2081 44.9066 93.6074 45.2126 93.8499 45.6322C94.0925 46.0517 94.1585 46.5504 94.0334 47.0186C93.9082 47.4868 93.6022 47.8861 93.1827 48.1286C91.4039 49.1554 89.3861 49.6959 87.3322 49.6959C84.2211 49.6959 81.3903 48.4747 79.2932 46.4865V90.3592C81.3903 88.3714 84.2211 87.1502 87.3322 87.1502C88.3414 87.1502 89.1592 87.968 89.1592 88.9772C89.1592 89.9865 88.3414 90.8043 87.3322 90.8043C82.8998 90.8039 79.2935 94.4101 79.2935 98.8429ZM52.8015 150C45.2642 150 38.8487 145.073 36.8214 138.016C35.5957 138.331 34.335 138.49 33.0694 138.49C24.8086 138.49 18.0877 131.769 18.0877 123.508C18.0877 121.796 18.3782 120.112 18.9391 118.528C11.9225 117.286 6.57734 111.143 6.57734 103.776C6.57734 101.316 7.17004 98.9375 8.30573 96.7937C3.20171 93.8657 0 88.42 0 82.3995C0 78.6212 1.26285 75.0139 3.58137 72.1001C2.31157 69.7283 1.64434 67.0608 1.64434 64.3118C1.64434 56.658 6.82253 50.1186 14.0229 48.2335C13.4493 46.526 13.1561 44.7368 13.1547 42.9354C13.1547 35.6035 17.8359 29.2831 24.7052 27.0976C25.1923 20.8052 30.0654 15.7228 36.2631 14.9119C37.1236 6.54665 44.2125 0 52.8015 0C61.9692 0 69.4275 7.45834 69.4275 16.6261V133.374C69.4275 142.542 61.9692 150 52.8015 150ZM39.9778 135.401C40.9787 141.745 46.3659 146.346 52.8015 146.346C59.9543 146.346 65.7735 140.527 65.7735 133.374V98.8429C65.7735 94.4101 62.1672 90.8039 57.7345 90.8039C57.2499 90.8039 56.7852 90.6114 56.4426 90.2688C56.0999 89.9261 55.9074 89.4614 55.9074 88.9769C55.9074 88.4923 56.0999 88.0276 56.4426 87.685C56.7852 87.3423 57.2499 87.1498 57.7345 87.1498C60.8452 87.1498 63.6764 88.371 65.7735 90.3588V46.4861C65.7735 47.3057 62.5707 48.6764 61.929 48.9223C58.6619 50.1756 54.9117 49.8786 51.8839 48.1283C51.4715 47.8821 51.1725 47.4835 51.0517 47.0187C50.9309 46.5538 50.9979 46.0601 51.2383 45.6443C51.4788 45.2285 51.8732 44.9241 52.3363 44.7969C52.7995 44.6697 53.2941 44.7299 53.7132 44.9646C54.9359 45.67 56.3228 46.0413 57.7345 46.041C62.1672 46.041 65.7735 42.4348 65.7735 38.0021V16.6257C65.7735 9.47284 59.9543 3.65372 52.8015 3.65372C45.6486 3.65372 39.8295 9.47284 39.8295 16.6257C39.831 18.4549 40.2183 20.2632 40.966 21.9326C41.7136 23.602 42.805 25.095 44.1687 26.3141C44.53 26.637 44.7482 27.0902 44.7753 27.5741C44.8025 28.0579 44.6363 28.5326 44.3134 28.8939C43.9905 29.2552 43.5373 29.4734 43.0535 29.5006C42.5697 29.5277 42.0949 29.3615 41.7336 29.0386C38.7128 26.3367 36.779 22.6274 36.2938 18.6037C32.343 19.3096 29.2151 22.4196 28.4821 26.3609C31.5661 26.1164 34.5161 26.7073 37.2179 28.0615C37.4324 28.169 37.6237 28.3176 37.7808 28.499C37.9378 28.6804 38.0576 28.891 38.1333 29.1187C38.2089 29.3463 38.239 29.5867 38.2218 29.826C38.2045 30.0653 38.1403 30.2989 38.0328 30.5134C37.9253 30.728 37.7767 30.9192 37.5953 31.0763C37.4139 31.2334 37.2034 31.3532 36.9757 31.4289C36.748 31.5046 36.5076 31.5346 36.2683 31.5174C36.0289 31.5001 35.7954 31.4358 35.5809 31.3283C29.2648 28.1587 20.7238 30.8569 17.9814 37.4971C16.5033 41.0759 16.3162 45.2598 18.1867 48.748C18.1999 48.7725 18.2127 48.7977 18.2247 48.8233C19.3513 51.0398 20.708 52.64 22.4339 53.7694C25.1503 51.0292 28.9147 49.3297 33.0691 49.3297C33.5536 49.3297 34.0183 49.5222 34.361 49.8649C34.7036 50.2075 34.8961 50.6722 34.8961 51.1568C34.8961 51.6413 34.7036 52.106 34.361 52.4487C34.0183 52.7913 33.5536 52.9838 33.0691 52.9838C26.9083 52.9838 21.7414 58.1339 21.7414 64.3115C21.7414 64.796 21.5489 65.2607 21.2063 65.6034C20.8636 65.946 20.3989 66.1385 19.9144 66.1385C19.4298 66.1385 18.9651 65.946 18.6225 65.6034C18.2798 65.2607 18.0873 64.796 18.0873 64.3115C18.0841 61.6207 18.8099 58.9794 20.1877 56.6682C18.3468 55.4171 16.8471 53.768 15.5883 51.6183C9.64458 52.8585 5.29842 58.1171 5.29842 64.3118C5.29842 71.3912 11.2096 77.2838 18.2704 77.2838C18.755 77.2838 19.2197 77.4763 19.5623 77.8189C19.905 78.1616 20.0974 78.6263 20.0974 79.1108C20.0974 79.5954 19.905 80.0601 19.5623 80.4028C19.2197 80.7454 18.755 80.9379 18.2704 80.9379C13.4295 80.9379 8.91596 78.8602 5.78295 75.2814C4.39915 77.3726 3.65408 79.8347 3.65408 82.3995C3.65408 87.6435 6.76663 92.328 11.5867 94.3447C13.1798 95.0241 14.8941 95.3734 16.6261 95.3715C20.3635 95.3715 23.9068 93.7652 26.3481 90.965C27.0113 90.2039 28.1653 90.1253 28.9261 90.7886C29.6868 91.4518 29.7658 92.6057 29.1026 93.3661C25.9674 96.9629 21.4199 99.0256 16.6261 99.0256C14.9295 99.0256 13.2672 98.7702 11.6657 98.2648C10.722 99.9481 10.228 101.846 10.2314 103.776C10.2314 110.022 15.3132 115.104 21.5591 115.104H21.6596L21.7089 115.103C25.6743 115.056 29.3755 112.889 31.3535 109.444C31.5997 109.034 31.9971 108.736 32.4601 108.616C32.9231 108.495 33.4149 108.561 33.8299 108.799C34.2448 109.038 34.5498 109.429 34.6794 109.89C34.8089 110.35 34.7526 110.843 34.5227 111.263C32.0839 115.512 27.6676 118.292 22.8146 118.705C22.1105 120.186 21.7418 121.828 21.7418 123.508C21.7418 129.754 26.8235 134.836 33.0694 134.836C34.1379 134.836 35.1888 134.688 36.2079 134.397C36.1864 134.056 36.1756 133.715 36.1754 133.374C36.1754 127.239 39.5434 121.619 44.9646 118.709C45.1761 118.594 45.4082 118.522 45.6477 118.497C45.8871 118.472 46.1292 118.495 46.3598 118.564C46.5905 118.633 46.8053 118.747 46.9919 118.899C47.1785 119.051 47.3331 119.238 47.447 119.451C47.5608 119.663 47.6316 119.895 47.6553 120.135C47.679 120.374 47.6551 120.616 47.585 120.847C47.5149 121.077 47.4 121.291 47.2468 121.477C47.0937 121.663 46.9053 121.816 46.6926 121.929C42.4593 124.202 39.8291 128.587 39.8291 133.374C39.8291 133.979 39.8759 134.631 39.9724 135.365L39.9778 135.401ZM103.776 110.536C98.2352 110.536 93.7272 106.028 93.7272 100.487C93.7272 96.9526 95.5619 93.8386 98.3284 92.0467C94.5789 89.6832 92.0828 85.5051 92.0828 80.7552C92.0828 73.401 98.066 67.4178 105.42 67.4178C105.905 67.4178 106.369 67.6103 106.712 67.9529C107.055 68.2955 107.247 68.7603 107.247 69.2448C107.247 69.7294 107.055 70.1941 106.712 70.5367C106.369 70.8794 105.905 71.0719 105.42 71.0719C100.081 71.0719 95.7369 75.4158 95.7369 80.7552C95.7369 86.0945 100.081 90.4385 105.42 90.4385H111.998C113.007 90.4385 113.825 91.2563 113.825 92.2655C113.825 93.2748 113.007 94.0926 111.998 94.0926H103.776C100.25 94.0926 97.3812 96.9614 97.3812 100.487C97.3812 104.013 100.25 106.882 103.776 106.882C104.785 106.882 105.603 107.7 105.603 108.709C105.603 109.718 104.785 110.536 103.776 110.536ZM41.2911 110.536C40.8065 110.536 40.3418 110.343 39.9992 110.001C39.6566 109.658 39.4641 109.193 39.4641 108.709C39.4641 108.224 39.6566 107.76 39.9992 107.417C40.3418 107.074 40.8065 106.882 41.2911 106.882C44.8169 106.882 47.6858 104.013 47.6858 100.487C47.6858 96.9614 44.8169 94.0926 41.2911 94.0926H33.0694C32.5849 94.0926 32.1202 93.9001 31.7775 93.5574C31.4349 93.2148 31.2424 92.7501 31.2424 92.2655C31.2424 91.781 31.4349 91.3163 31.7775 90.9736C32.1202 90.631 32.5849 90.4385 33.0694 90.4385H39.6468C44.9861 90.4385 49.3301 86.0945 49.3301 80.7552C49.3301 75.4158 44.9861 71.0719 39.6468 71.0719C39.1622 71.0719 38.6975 70.8794 38.3549 70.5367C38.0122 70.1941 37.8197 69.7294 37.8197 69.2448C37.8197 68.7603 38.0122 68.2955 38.3549 67.9529C38.6975 67.6103 39.1622 67.4178 39.6468 67.4178C47.001 67.4178 52.9842 73.401 52.9842 80.7552C52.9842 85.5051 50.4881 89.6836 46.739 92.0467C49.5051 93.8386 51.3398 96.9526 51.3398 100.487C51.3398 106.028 46.8322 110.536 41.2911 110.536Z" fill="url(#paint0_linear_750_3965)"/>
<defs>
<linearGradient id="paint0_linear_750_3965" x1="72.5335" y1="0" x2="72.5335" y2="150" gradientUnits="userSpaceOnUse">
<stop stop-color="#976BFF"/>
<stop offset="1" stop-color="#534379"/>
</linearGradient>
</defs>
</svg>
