<svg width="170" height="170" viewBox="0 0 170 170" fill="none" xmlns="http://www.w3.org/2000/svg">
<path d="M162.832 147.577H124.836V128.479H134.184C138.136 128.479 141.351 125.263 141.351 121.311V113.234C141.351 109.281 138.136 106.066 134.184 106.066H113.344L96.6184 86.284L104.912 76.5608C105.124 76.312 105.285 76.0238 105.386 75.7128C105.487 75.4017 105.526 75.0738 105.5 74.7478C105.474 74.4218 105.384 74.104 105.236 73.8128C105.087 73.5215 104.882 73.2624 104.633 73.0502C104.385 72.8379 104.096 72.6768 103.785 72.5759C103.474 72.4751 103.146 72.4364 102.82 72.4623C102.494 72.4882 102.177 72.578 101.885 72.7267C101.594 72.8754 101.335 73.0799 101.123 73.3288L73.1986 106.066H70.8581C70.7466 105.925 70.628 105.791 70.5125 105.653L70.4381 105.565C69.1919 104.098 67.7194 102.84 66.0762 101.837L65.9902 101.787C65.4515 101.462 64.8963 101.165 64.3267 100.898C64.1677 100.823 64.008 100.749 63.847 100.679L123.239 31.0472C125.214 34.1488 128.034 36.5188 131.321 37.9243L108.664 64.4868C108.452 64.7355 108.291 65.0237 108.19 65.3348C108.089 65.6459 108.05 65.9738 108.076 66.2998C108.102 66.6258 108.192 66.9435 108.341 67.2348C108.489 67.526 108.694 67.7852 108.943 67.9973C109.192 68.2096 109.48 68.3708 109.791 68.4716C110.102 68.5725 110.43 68.6111 110.756 68.5852C111.082 68.5593 111.399 68.4695 111.691 68.3209C111.982 68.1722 112.241 67.9676 112.453 67.7188L136.698 39.2952C147.432 40.3279 156.554 31.8796 156.554 21.2981C156.554 11.3276 148.443 3.21605 138.472 3.21605C132.033 3.21605 126.227 6.53836 122.968 11.9863H92.2084C91.1449 9.3583 88.5703 7.4976 85.5658 7.4976H76.9997C75.8203 3.18219 71.8672 0 67.1829 0C62.4986 0 58.5461 3.18219 57.367 7.4976H48.8003C44.8485 7.4976 41.6331 10.713 41.6331 14.6655V18.8082H35.8219L36.6509 17.1494C36.9455 16.5588 36.9935 15.8754 36.7845 15.2494C36.5755 14.6234 36.1266 14.1059 35.5363 13.8108C34.946 13.5156 34.2626 13.4668 33.6364 13.6751C33.0102 13.8834 32.4922 14.3318 32.1964 14.9218L30.2534 18.8082H26.0754L26.9045 17.1494C27.199 16.5588 27.2471 15.8754 27.0381 15.2494C26.8291 14.6234 26.3801 14.1059 25.7898 13.8108C25.1995 13.5156 24.5162 13.4668 23.89 13.6751C23.2637 13.8834 22.7458 14.3318 22.45 14.9218L20.5072 18.8082H16.328L17.1574 17.1494C17.3036 16.8569 17.3908 16.5384 17.4139 16.2122C17.437 15.886 17.3957 15.5584 17.2922 15.2482C17.1887 14.9379 17.0251 14.6511 16.8108 14.4041C16.5965 14.1571 16.3356 13.9547 16.0431 13.8085C14.8142 13.1936 13.3174 13.6923 12.7019 14.9225L10.7595 18.8082H2.49023C1.82978 18.8082 1.19638 19.0706 0.729373 19.5376C0.262363 20.0046 0 20.638 0 21.2985C0 21.9589 0.262363 22.5923 0.729373 23.0593C1.19638 23.5263 1.82978 23.7887 2.49023 23.7887H8.2699L7.63539 25.0581C7.34008 25.6489 7.29156 26.3328 7.5005 26.9593C7.70944 27.5859 8.15873 28.1038 8.74952 28.3991C9.34032 28.6944 10.0242 28.743 10.6508 28.534C11.2774 28.3251 11.7953 27.8758 12.0906 27.285L13.8384 23.7887H18.0173L17.3828 25.0581C17.0883 25.6487 17.0402 26.3321 17.2492 26.9581C17.4582 27.5841 17.9072 28.1015 18.4975 28.3967C19.0878 28.6919 19.7711 28.7407 20.3974 28.5324C21.0236 28.324 21.5415 27.8756 21.8374 27.2857L23.5855 23.789H27.7638L27.1293 25.0584C26.8347 25.649 26.7867 26.3324 26.9957 26.9584C27.2047 27.5844 27.6537 28.1019 28.2439 28.3971C28.8342 28.6922 29.5176 28.741 30.1438 28.5327C30.7701 28.3244 31.288 27.876 31.5838 27.286L33.332 23.7894H41.6334V27.9311C41.6334 31.8836 44.8488 35.0994 48.8006 35.0994H57.367C58.5464 39.4151 62.4989 42.5973 67.1832 42.5973C71.8678 42.5973 75.8213 39.4151 77 35.0994H85.5661C88.5707 35.0994 91.1452 33.2387 92.2087 30.6106H117.067L58.4873 99.2873C57.8824 99.2244 57.2746 99.1921 56.6664 99.1904C46.6962 99.1904 38.5844 107.302 38.5844 117.272C38.5844 127.243 46.6962 135.354 56.6664 135.354C61.962 135.354 66.9358 133.041 70.3518 129.084V147.577H28.9452C24.993 147.577 21.7773 150.793 21.7773 154.745V162.822C21.7773 166.775 24.993 169.99 28.9452 169.99H91.7834C92.4438 169.99 93.0773 169.728 93.5443 169.261C94.0113 168.794 94.2736 168.161 94.2736 167.5C94.2736 166.84 94.0113 166.206 93.5443 165.739C93.0773 165.272 92.4438 165.01 91.7834 165.01H28.9452C28.3652 165.009 27.8092 164.778 27.3991 164.368C26.989 163.958 26.7583 163.402 26.7577 162.822V154.745C26.7583 154.165 26.989 153.609 27.3991 153.199C27.8092 152.789 28.3652 152.558 28.9452 152.558H162.832C163.412 152.558 163.968 152.789 164.378 153.199C164.788 153.609 165.019 154.165 165.02 154.745V162.822C165.019 163.402 164.788 163.958 164.378 164.368C163.968 164.778 163.412 165.009 162.832 165.01H103.404C102.744 165.01 102.111 165.272 101.644 165.739C101.177 166.206 100.914 166.84 100.914 167.5C100.914 168.161 101.177 168.794 101.644 169.261C102.111 169.728 102.744 169.99 103.404 169.99H162.832C166.784 169.99 170 166.775 170 162.822V154.745C170 150.793 166.784 147.577 162.832 147.577ZM57.0064 30.1179H48.8003C48.2204 30.1172 47.6644 29.8864 47.2544 29.4763C46.8445 29.0661 46.614 28.5101 46.6135 27.9301V14.6662C46.6141 14.0863 46.8446 13.5303 47.2546 13.1202C47.6645 12.7101 48.2204 12.4794 48.8003 12.4787H57.0064V30.1179ZM72.3795 32.4195C72.3795 35.285 70.0483 37.6158 67.1825 37.6158C64.3174 37.6158 61.9869 35.2846 61.9869 32.4195V10.1778C61.9869 7.31232 64.3178 4.98146 67.1825 4.98146C70.0483 4.98146 72.3795 7.31266 72.3795 10.1778V32.4195ZM87.7462 27.9926C87.7452 28.0105 87.7469 28.0281 87.7462 28.046C87.6858 29.1985 86.7325 30.1182 85.5655 30.1182H77.36V12.4787H85.5655C86.7325 12.4787 87.6861 13.3985 87.7462 14.5513C87.7469 14.5689 87.7452 14.5865 87.7462 14.6037L87.7519 27.9039L87.7462 27.9926ZM92.734 25.6295V16.9671H124.449C124.916 16.9671 125.373 16.8359 125.769 16.5885C126.165 16.3411 126.483 15.9875 126.688 15.5679C128.904 11.0214 133.419 8.19686 138.472 8.19686C145.696 8.19686 151.574 14.0741 151.574 21.2985C151.574 29.6484 143.797 35.948 135.558 34.0744C135.18 33.9859 134.806 33.8828 134.436 33.7656C131.087 32.6954 128.241 30.2188 126.687 27.0287C126.48 26.6113 126.162 26.2586 125.769 26.0087C125.373 25.7612 124.915 25.6298 124.448 25.6295H92.734ZM93.343 90.1242L106.821 106.066H79.7449L93.343 90.1242ZM69.5957 123.499C69.1884 123.499 68.7873 123.599 68.4275 123.79C68.0678 123.981 67.7605 124.257 67.5325 124.595C66.3332 126.375 64.7151 127.832 62.8204 128.84C60.9257 129.848 58.8124 130.374 56.6664 130.374C49.4421 130.374 43.5648 124.496 43.5648 117.272C43.5648 110.048 49.4421 104.171 56.6664 104.171C57.4713 104.171 58.2652 104.246 59.0415 104.388L59.0478 104.39C59.6049 104.492 60.1544 104.632 60.6933 104.806C60.7468 104.823 60.7989 104.844 60.8527 104.862C61.0652 104.933 61.2764 105.009 61.4852 105.091C61.5473 105.116 61.6077 105.143 61.6695 105.169C62.0171 105.311 62.3581 105.468 62.6915 105.641C62.8007 105.698 62.911 105.758 63.0222 105.82C63.0869 105.856 63.151 105.893 63.2151 105.93C63.3994 106.037 63.5787 106.146 63.745 106.253L63.8367 106.313L63.9007 106.356C64.0926 106.483 64.2811 106.615 64.4659 106.752L64.5977 106.852C64.774 106.986 64.947 107.125 65.116 107.268L65.2514 107.384C65.4171 107.528 65.5788 107.676 65.7365 107.828L65.865 107.952C66.0234 108.108 66.1768 108.269 66.3282 108.434L66.4398 108.555C66.5945 108.729 66.7436 108.907 66.8877 109.086L66.9724 109.189C67.1281 109.388 67.2822 109.596 67.4246 109.801L67.4704 109.865C67.4953 109.901 67.5215 109.937 67.5528 109.98C67.582 110.021 67.6155 110.059 67.6464 110.098C67.6746 110.134 67.7008 110.171 67.7311 110.205C67.7673 110.246 67.8071 110.283 67.8459 110.321C67.8791 110.354 67.91 110.388 67.9445 110.419C67.9847 110.455 68.0282 110.486 68.0707 110.519C68.1072 110.547 68.1424 110.578 68.1806 110.604C68.2248 110.635 68.2716 110.661 68.3178 110.688C68.3573 110.712 68.3951 110.738 68.436 110.759C68.4844 110.785 68.5359 110.805 68.586 110.828C68.6269 110.846 68.6664 110.867 68.7082 110.882C68.7627 110.903 68.8191 110.918 68.8752 110.935C68.9151 110.948 68.9536 110.963 68.9941 110.972C69.0569 110.988 69.1216 110.998 69.186 111.008C69.2209 111.014 69.2554 111.024 69.2909 111.028C69.3915 111.04 69.4931 111.047 69.5957 111.047H134.183C134.763 111.048 135.319 111.278 135.729 111.688C136.139 112.098 136.37 112.654 136.37 113.234V121.311C136.37 122.518 135.389 123.499 134.183 123.499H69.5957ZM119.856 147.577H75.3322V128.479H119.856V147.577Z" fill="url(#paint0_linear_750_3936)"/>
<defs>
<linearGradient id="paint0_linear_750_3936" x1="11" y1="23.4954" x2="161" y2="169.995" gradientUnits="userSpaceOnUse">
<stop stop-color="#388AF6"/>
<stop offset="1" stop-color="#06398B"/>
</linearGradient>
</defs>
</svg>
