<svg width="150" height="165" viewBox="0 0 150 165" fill="none" xmlns="http://www.w3.org/2000/svg">
<path fill-rule="evenodd" clip-rule="evenodd" d="M3.542 159.317H2.33333C1.04533 159.317 0 158.272 0 156.984C0 155.696 1.04533 154.65 2.33333 154.65H3.542V126.783C3.542 125.495 4.58767 124.449 5.87533 124.449H22.5167C22.8257 115.71 23.5997 103.132 25.517 92.1417C26.9643 83.8473 29.107 76.4457 32.085 72.0563C41.7687 57.782 54.6303 57.5313 58.031 57.286C62.8303 56.94 67.2467 56.8697 70.851 56.913L73.324 54.44V19.2367H69.1563C68.33 19.2366 67.5243 18.9779 66.8525 18.4968C66.1806 18.0157 65.6762 17.3363 65.41 16.554L61.559 5.23133C61.3565 4.63579 61.2989 4.00055 61.3909 3.37828C61.483 2.75602 61.722 2.16466 62.0883 1.65324C62.4545 1.14183 62.9374 0.725082 63.4969 0.437567C64.0563 0.150052 64.6763 5.08627e-05 65.3053 0H103.325C103.954 0.000177785 104.574 0.150266 105.133 0.437825C105.692 0.725383 106.175 1.14213 106.541 1.65352C106.908 2.16491 107.147 2.75621 107.239 3.37842C107.331 4.00063 107.273 4.63582 107.071 5.23133L103.22 16.554C102.954 17.3363 102.449 18.0157 101.778 18.4968C101.106 18.9779 100.3 19.2366 99.4737 19.2367H95.306V32.4583L101.261 26.5037C103.44 24.324 106.974 24.324 109.153 26.5037L113.546 30.8963C115.599 32.9497 115.718 36.2043 113.903 38.3967L148.634 75.9093C150.316 77.7257 150.262 80.5463 148.512 82.2963L109.83 120.978C108.079 122.729 105.259 122.783 103.443 121.101L65.93 86.3697C63.7373 88.1847 60.4827 88.0657 58.4297 86.0127L54.0367 81.6197C53.9575 81.5404 53.8807 81.4588 53.8063 81.375C53.0367 83.11 52.412 85.483 51.8363 88.242C49.7287 98.346 48.9093 113.345 48.5873 124.449H63.987C65.2747 124.449 66.3203 125.495 66.3203 126.783V154.65H67.529C68.817 154.65 69.8623 155.696 69.8623 156.984C69.8623 158.272 68.817 159.317 67.529 159.317H66.3203V162.333C66.3203 163.621 65.2747 164.667 63.987 164.667C62.699 164.667 61.6537 163.621 61.6537 162.333V159.317H8.20867V162.333C8.20867 163.621 7.16333 164.667 5.87533 164.667C4.58767 164.667 3.542 163.621 3.542 162.333V159.317ZM8.20867 129.116V154.65H61.6537V129.116H8.20867ZM74.304 60.06L57.3367 77.027C57.1652 77.1985 57.0689 77.431 57.0689 77.6735C57.0689 77.916 57.1652 78.1485 57.3367 78.32L61.7297 82.7127C61.8145 82.7976 61.9153 82.8649 62.0262 82.9108C62.1371 82.9568 62.256 82.9804 62.376 82.9804C62.496 82.9804 62.6149 82.9568 62.7258 82.9108C62.8367 82.8649 62.9375 82.7976 63.0223 82.7127L80.0803 65.655C77.5186 64.5846 75.4555 62.5863 74.304 60.06ZM77.9907 19.2367V55.5203C77.9907 59.004 80.815 61.8287 84.2987 61.8287L84.324 61.8283H84.331C87.815 61.8283 90.6393 59.004 90.6393 55.5203V19.2367H77.9907ZM84.315 58.1943C81.6263 58.1943 79.4437 56.0117 79.4437 53.3233C79.4437 50.635 81.6263 48.452 84.315 48.452C87.0033 48.452 89.186 50.635 89.186 53.3233C89.186 56.0117 87.0033 58.1943 84.315 58.1943ZM95.306 39.058V50.4293L110.246 35.489C110.331 35.4041 110.398 35.3034 110.444 35.1925C110.49 35.0816 110.514 34.9627 110.514 34.8427C110.514 34.7226 110.49 34.6038 110.444 34.4929C110.398 34.382 110.331 34.2812 110.246 34.1963L105.853 29.8033C105.768 29.7185 105.667 29.6511 105.556 29.6052C105.446 29.5592 105.327 29.5356 105.207 29.5356C105.087 29.5356 104.968 29.5592 104.857 29.6052C104.746 29.6511 104.645 29.7185 104.56 29.8033L95.306 39.058ZM66.296 4.66667L69.6643 14.57H98.9653L102.334 4.66667H66.296ZM27.186 124.449H43.919C44.2473 113.087 45.1037 97.6637 47.268 87.289C48.3607 82.0507 49.8877 78.03 51.675 76.0917C54.1617 73.395 55.666 71.694 57.35 70.414L66.171 61.5933C63.758 61.6367 61.1277 61.7417 58.3663 61.9407C55.4297 62.1523 44.31 62.3483 35.9467 74.676C33.2443 78.6593 31.4273 85.417 30.1143 92.9437C28.247 103.647 27.492 115.887 27.186 124.449ZM85.9597 66.375L69.2503 83.0843L106.571 117.638L145.171 79.0373L110.618 41.717L95.186 57.149C94.478 61.9063 90.717 65.6673 85.9597 66.375Z" fill="url(#paint0_linear_750_3924)"/>
<defs>
<linearGradient id="paint0_linear_750_3924" x1="159.93" y1="-2.66667" x2="-10.0697" y2="167.333" gradientUnits="userSpaceOnUse">
<stop stop-color="#E93528"/>
<stop offset="1" stop-color="#F8BC16"/>
</linearGradient>
</defs>
</svg>
