<svg width="156" height="165" viewBox="0 0 156 165" fill="none" xmlns="http://www.w3.org/2000/svg">
<path d="M154.942 58.953L79.4736 0.515477C79.0419 0.180593 78.5201 0 77.9844 0C77.4486 0 76.9269 0.180593 76.4951 0.515477L1.02638 58.953C0.70785 59.2 0.448933 59.5229 0.270611 59.8953C0.0922898 60.2677 -0.000418162 60.6793 1.41787e-06 61.0966V162.034C1.41787e-06 162.739 0.26504 163.414 0.736811 163.912C1.20858 164.41 1.84844 164.69 2.51563 164.69H153.453C154.12 164.69 154.76 164.41 155.232 163.912C155.704 163.414 155.969 162.739 155.969 162.034V61.0966C155.969 60.6793 155.876 60.2677 155.698 59.8953C155.52 59.5229 155.261 59.2 154.942 58.953ZM140.875 159.378H120.75V90.3153H123.266C123.933 90.3153 124.573 90.0355 125.044 89.5373C125.516 89.0392 125.781 88.3635 125.781 87.6591V77.0341C125.781 76.3296 125.516 75.654 125.044 75.1558C124.573 74.6577 123.933 74.3778 123.266 74.3778H32.7031C32.0359 74.3778 31.3961 74.6577 30.9243 75.1558C30.4525 75.654 30.1875 76.3296 30.1875 77.0341V87.6591C30.1875 88.3635 30.4525 89.0392 30.9243 89.5373C31.3961 90.0355 32.0359 90.3153 32.7031 90.3153H35.2188V159.378H15.0938V67.7584L77.9844 19.2314L140.875 67.7584V159.378ZM115.719 138.128H40.25V132.815H115.719V138.128ZM115.719 127.503H40.25V122.19H115.719V127.503ZM115.719 116.878H40.25V111.565H115.719V116.878ZM115.719 106.253H40.25V100.94H115.719V106.253ZM35.2188 85.0028V79.6903H120.75V85.0028H35.2188ZM115.719 90.3153V95.6278H40.25V90.3153H115.719ZM40.25 143.44H115.719V159.378H40.25V143.44ZM150.938 159.378H145.906V66.4091C145.906 65.9909 145.813 65.5785 145.634 65.2055C145.455 64.8326 145.195 64.5096 144.875 64.2628L79.4686 13.7941C79.0378 13.4616 78.518 13.2825 77.9844 13.2825C77.4508 13.2825 76.931 13.4616 76.5002 13.7941L11.0939 64.2628C10.7741 64.5096 10.514 64.8326 10.3348 65.2055C10.1556 65.5785 10.0623 65.9909 10.0625 66.4091V159.378H5.03125V62.4433L77.9844 5.95282L150.938 62.4433V159.378Z" fill="url(#paint0_linear_750_3910)"/>
<path d="M20.125 98.2842C19.4578 98.2842 18.818 98.564 18.3462 99.0622C17.8744 99.5603 17.6094 100.236 17.6094 100.94V106.253C17.6158 107.895 18.1026 109.495 19.0033 110.834C19.9039 112.173 21.1742 113.186 22.6406 113.733V119.534H27.6719V113.733C29.1383 113.186 30.4086 112.173 31.3092 110.834C32.2099 109.495 32.6967 107.895 32.7031 106.253V100.94C32.7031 100.236 32.4381 99.5603 31.9663 99.0622C31.4945 98.564 30.8547 98.2842 30.1875 98.2842H20.125ZM27.6719 106.253C27.6719 106.957 27.4068 107.633 26.9351 108.131C26.4633 108.629 25.8234 108.909 25.1562 108.909C24.4891 108.909 23.8492 108.629 23.3774 108.131C22.9057 107.633 22.6406 106.957 22.6406 106.253V103.597H27.6719V106.253ZM123.266 100.94V106.253C123.272 107.895 123.759 109.495 124.66 110.834C125.56 112.173 126.83 113.186 128.297 113.733V119.534H133.328V113.733C134.795 113.186 136.065 112.173 136.965 110.834C137.866 109.495 138.353 107.895 138.359 106.253V100.94C138.359 100.236 138.094 99.5603 137.623 99.0622C137.151 98.564 136.511 98.2842 135.844 98.2842H125.781C125.114 98.2842 124.474 98.564 124.002 99.0622C123.531 99.5603 123.266 100.236 123.266 100.94ZM128.297 103.597H133.328V106.253C133.328 106.957 133.063 107.633 132.591 108.131C132.12 108.629 131.48 108.909 130.812 108.909C130.145 108.909 129.505 108.629 129.034 108.131C128.562 107.633 128.297 106.957 128.297 106.253V103.597ZM55.3438 50.4717V66.4092C55.3438 67.1137 55.6088 67.7893 56.0806 68.2874C56.5523 68.7856 57.1922 69.0654 57.8594 69.0654H98.1094C98.7766 69.0654 99.4164 68.7856 99.8882 68.2874C100.36 67.7893 100.625 67.1137 100.625 66.4092V50.4717C100.625 49.7672 100.36 49.0916 99.8882 48.5934C99.4164 48.0953 98.7766 47.8154 98.1094 47.8154H57.8594C57.1922 47.8154 56.5523 48.0953 56.0806 48.5934C55.6088 49.0916 55.3438 49.7672 55.3438 50.4717ZM60.375 53.1279H95.5938V63.7529H60.375V53.1279Z" fill="url(#paint1_linear_750_3910)"/>
<defs>
<linearGradient id="paint0_linear_750_3910" x1="49.9844" y1="24.3466" x2="148.984" y2="163.347" gradientUnits="userSpaceOnUse">
<stop stop-color="#FF3424"/>
<stop offset="1" stop-color="#E96D2C"/>
</linearGradient>
<linearGradient id="paint1_linear_750_3910" x1="56.307" y1="58.4178" x2="87.8034" y2="137.037" gradientUnits="userSpaceOnUse">
<stop stop-color="#FF3424"/>
<stop offset="1" stop-color="#E96D2C"/>
</linearGradient>
</defs>
</svg>
