<svg width="100" height="94" viewBox="0 0 100 94" fill="none" xmlns="http://www.w3.org/2000/svg">
<path d="M61.6719 35.3735H38.3281C33.8663 35.3777 29.5884 37.152 26.4334 40.3069C23.2784 43.4619 21.5041 47.7398 21.5 52.2017V63.6548C21.5041 68.1166 23.2784 72.3945 26.4334 75.5495C29.5884 78.7045 33.8663 80.4788 38.3281 80.4829H61.6719C66.1337 80.4788 70.4116 78.7045 73.5666 75.5495C76.7216 72.3945 78.4959 68.1166 78.5 63.6548V52.2017C78.4959 47.7398 76.7216 43.4619 73.5666 40.3069C70.4116 37.152 66.1337 35.3777 61.6719 35.3735ZM75.2969 63.6548C75.2927 67.2671 73.8559 70.7303 71.3016 73.2845C68.7474 75.8388 65.2842 77.2757 61.6719 77.2798H38.3281C34.7158 77.2757 31.2527 75.8388 28.6984 73.2845C26.1441 70.7303 24.7073 67.2671 24.7031 63.6548V52.2017C24.7073 48.5894 26.1441 45.1262 28.6984 42.5719C31.2527 40.0176 34.7158 38.5808 38.3281 38.5767H61.6719C65.2842 38.5808 68.7474 40.0176 71.3016 42.5719C73.8559 45.1262 75.2927 48.5894 75.2969 52.2017V63.6548Z" fill="url(#paint0_linear_750_3821)"/>
<path d="M42.0156 52.1392C42.0156 50.9772 41.6711 49.8413 41.0255 48.8752C40.38 47.9091 39.4624 47.156 38.3889 46.7114C37.3154 46.2667 36.1341 46.1504 34.9945 46.377C33.8548 46.6037 32.808 47.1633 31.9864 47.9849C31.1647 48.8065 30.6052 49.8534 30.3785 50.993C30.1518 52.1326 30.2682 53.3139 30.7128 54.3874C31.1575 55.4609 31.9105 56.3785 32.8767 57.024C33.8428 57.6696 34.9787 58.0142 36.1406 58.0142C37.6988 58.0142 39.1931 57.3952 40.2949 56.2934C41.3967 55.1916 42.0156 53.6973 42.0156 52.1392ZM36.1406 54.811C35.6122 54.811 35.0956 54.6543 34.6562 54.3607C34.2168 54.0672 33.8744 53.6499 33.6721 53.1616C33.4699 52.6734 33.417 52.1362 33.5201 51.6179C33.6232 51.0996 33.8777 50.6235 34.2513 50.2499C34.625 49.8762 35.1011 49.6217 35.6194 49.5186C36.1377 49.4155 36.6749 49.4684 37.1631 49.6707C37.6513 49.8729 38.0686 50.2154 38.3622 50.6547C38.6558 51.0941 38.8125 51.6107 38.8125 52.1392C38.8084 52.8465 38.5256 53.5237 38.0254 54.0239C37.5252 54.5241 36.848 54.8069 36.1406 54.811ZM63.8594 46.2642C62.6974 46.2642 61.5615 46.6087 60.5954 47.2543C59.6293 47.8998 58.8762 48.8174 58.4316 49.8909C57.9869 50.9644 57.8706 52.1457 58.0973 53.2853C58.324 54.425 58.8835 55.4718 59.7051 56.2934C60.5268 57.1151 61.5736 57.6746 62.7132 57.9013C63.8529 58.128 65.0341 58.0116 66.1076 57.567C67.1812 57.1223 68.0987 56.3693 68.7443 55.4031C69.3898 54.437 69.7344 53.3011 69.7344 52.1392C69.7344 50.581 69.1154 49.0867 68.0136 47.9849C66.9118 46.8831 65.4175 46.2642 63.8594 46.2642ZM63.8594 54.811C63.3309 54.811 62.8144 54.6543 62.375 54.3607C61.9356 54.0672 61.5931 53.6499 61.3909 53.1616C61.1887 52.6734 61.1357 52.1362 61.2388 51.6179C61.3419 51.0996 61.5964 50.6235 61.9701 50.2499C62.3437 49.8762 62.8198 49.6217 63.3381 49.5186C63.8564 49.4155 64.3936 49.4684 64.8819 49.6707C65.3701 49.8729 65.7874 50.2154 66.081 50.6547C66.3745 51.0941 66.5313 51.6107 66.5313 52.1392C66.5272 52.8465 66.2443 53.5237 65.7441 54.0239C65.244 54.5241 64.5667 54.8069 63.8594 54.811ZM57.0938 63.3892C50.125 69.9517 43.2188 63.6704 42.9062 63.3892C42.7534 63.2455 42.5737 63.1334 42.3775 63.0592C42.1813 62.985 41.9724 62.9502 41.7628 62.9567C41.5531 62.9632 41.3468 63.011 41.1556 63.0973C40.9644 63.1835 40.7921 63.3066 40.6484 63.4595C40.5048 63.6123 40.3927 63.792 40.3185 63.9882C40.2443 64.1844 40.2095 64.3933 40.216 64.6029C40.2225 64.8126 40.2703 65.0189 40.3565 65.2101C40.4428 65.4013 40.5659 65.5737 40.7188 65.7173C43.3248 68.1235 46.7195 69.4958 50.2656 69.5767C53.6612 69.5249 56.8999 68.1385 59.2812 65.7173C59.4341 65.5737 59.5572 65.4013 59.6435 65.2101C59.7297 65.0189 59.7775 64.8126 59.784 64.6029C59.7905 64.3933 59.7557 64.1844 59.6815 63.9882C59.6073 63.792 59.4952 63.6123 59.3516 63.4595C59.2079 63.3066 59.0356 63.1835 58.8444 63.0973C58.6532 63.011 58.4469 62.9632 58.2372 62.9567C58.0276 62.9502 57.8187 62.985 57.6225 63.0592C57.4263 63.1334 57.2466 63.2455 57.0938 63.3892Z" fill="url(#paint1_linear_750_3821)"/>
<path d="M89.4375 43.8891C88.7056 37.8994 85.8094 32.3839 81.2942 28.3809C76.7789 24.3779 70.9561 22.1635 64.9219 22.1547H51.5625V14.0766C53.2734 13.692 54.7824 12.69 55.8006 11.2624C56.8189 9.8348 57.275 8.08181 57.0815 6.33895C56.8881 4.59609 56.0587 2.98578 54.7521 1.81622C53.4455 0.646663 51.7536 0 50 0C48.2464 0 46.5545 0.646663 45.2479 1.81622C43.9413 2.98578 43.1119 4.59609 42.9185 6.33895C42.725 8.08181 43.1811 9.8348 44.1994 11.2624C45.2176 12.69 46.7266 13.692 48.4375 14.0766V22.1078H35.0781C29.0368 22.118 23.208 24.339 18.6917 28.3516C14.1754 32.3641 11.2838 37.8909 10.5625 43.8891C4.6875 44.7016 0 50.6859 0 57.9203C0 65.1547 4.6875 71.1391 10.5625 71.9828C11.287 77.9796 14.1796 83.5044 18.6952 87.5164C23.2108 91.5284 29.0377 93.7505 35.0781 93.7641H64.9219C70.9647 93.75 76.7935 91.5257 81.3095 87.5106C85.8255 83.4954 88.7165 77.9668 89.4375 71.9672C95.375 71.1391 100 65.1703 100 57.9047C100 50.6391 95.3125 44.7016 89.4375 43.8891ZM10.3594 68.6703C6.29688 67.7328 3.20312 63.2797 3.20312 57.9203C3.20312 52.5609 6.32813 48.1234 10.3594 47.1703V68.6703ZM46.0781 7.20156C46.0781 6.42589 46.3081 5.66763 46.7391 5.02269C47.17 4.37774 47.7825 3.87506 48.4992 3.57822C49.2158 3.28139 50.0044 3.20372 50.7651 3.35504C51.5259 3.50637 52.2247 3.87989 52.7732 4.42838C53.3217 4.97686 53.6952 5.67567 53.8465 6.43644C53.9978 7.19721 53.9202 7.98577 53.6233 8.7024C53.3265 9.41903 52.8238 10.0315 52.1789 10.4625C51.5339 10.8934 50.7757 11.1234 50 11.1234C48.9611 11.1193 47.966 10.7048 47.2314 9.9702C46.4968 9.2356 46.0822 8.24044 46.0781 7.20156ZM86.4375 68.9672C86.4334 74.6737 84.1657 80.1454 80.1321 84.182C76.0985 88.2185 70.6283 90.4902 64.9219 90.4984H35.0781C29.3717 90.4902 23.9015 88.2185 19.8679 84.182C15.8343 80.1454 13.5666 74.6737 13.5625 68.9672V46.8891C13.5666 41.1826 15.8343 35.7108 19.8679 31.6743C23.9015 27.6377 29.3717 25.3661 35.0781 25.3578H64.9219C70.6283 25.3661 76.0985 27.6377 80.1321 31.6743C84.1657 35.7108 86.4334 41.1826 86.4375 46.8891V68.9672ZM89.5625 68.6703V47.1703C93.75 48.1234 96.875 52.5766 96.875 57.9203C96.875 63.2641 93.75 67.7328 89.6406 68.6703H89.5625Z" fill="url(#paint2_linear_750_3821)"/>
<defs>
<linearGradient id="paint0_linear_750_3821" x1="50" y1="35.3735" x2="50" y2="80.4829" gradientUnits="userSpaceOnUse">
<stop stop-color="#FF3424"/>
<stop offset="1" stop-color="#FF8177"/>
</linearGradient>
<linearGradient id="paint1_linear_750_3821" x1="50" y1="46.2642" x2="50" y2="69.5767" gradientUnits="userSpaceOnUse">
<stop stop-color="#FF3424"/>
<stop offset="1" stop-color="#FF8177"/>
</linearGradient>
<linearGradient id="paint2_linear_750_3821" x1="50" y1="0" x2="50" y2="93.7641" gradientUnits="userSpaceOnUse">
<stop stop-color="#FF3424"/>
<stop offset="1" stop-color="#FF8177"/>
</linearGradient>
</defs>
</svg>
