<svg width="95" height="83" viewBox="0 0 95 83" fill="none" xmlns="http://www.w3.org/2000/svg">
<path d="M84.9395 61.5566V59.4766C84.9395 57.9688 83.7129 56.7402 82.2051 56.7402H81.248L83.1543 29.3555C83.248 28.8594 83.2988 28.3496 83.2988 27.8281C83.2988 24.8789 81.7266 22.291 79.377 20.8574L79.3789 20.8555L48.1094 1.80469C47.0078 0.691407 45.4805 0 43.7949 0C40.752 0 38.2227 2.25195 37.7832 5.17773L28.2266 16.2812C25.6543 16.5195 23.6328 18.6914 23.6328 21.3262C23.6328 22.6621 24.1523 23.877 24.998 24.7832C21.4746 26.2422 18.9902 29.7168 18.9902 33.7637C18.9902 37.1816 20.7324 40.2852 23.6504 42.0645C23.8379 42.1777 24.0488 42.2363 24.2598 42.2363C24.457 42.2363 24.6543 42.1855 24.834 42.0859C25.0154 41.9841 25.1663 41.8358 25.2714 41.6563C25.3764 41.4767 25.4317 41.2725 25.4316 41.0645V34.5547L28.7578 32.6562L31.9531 34.543V41.0625C31.953 41.2706 32.0083 41.4749 32.1133 41.6545C32.2184 41.8341 32.3694 41.9824 32.5508 42.0843C32.7323 42.1861 32.9375 42.2378 33.1456 42.234C33.3536 42.2301 33.5568 42.171 33.7344 42.0625C36.6523 40.2812 38.3945 37.1777 38.3945 33.7617C38.3945 29.7148 35.9082 26.2383 32.3867 24.7812C33.1719 23.9395 33.6758 22.832 33.7441 21.6094L44.6504 12.1074C44.7031 12.0996 44.7539 12.0918 44.8047 12.084L68.8965 33.1719L62.4219 56.7402H61.1836C59.6758 56.7402 58.4473 57.9668 58.4473 59.4766V61.4883H53.2773V49.1016C53.2773 47.4199 51.9102 46.0527 50.2285 46.0527H36.875C35.1934 46.0527 33.8262 47.4199 33.8262 49.1016V61.4883H30.0801V49.1016C30.0801 47.4199 28.7129 46.0527 27.0312 46.0527H13.6836C12.002 46.0527 10.6348 47.4199 10.6348 49.1016V61.4883H10.3848C4.6582 61.4883 0 66.1465 0 71.873C0 77.5996 4.6582 82.2578 10.3848 82.2578H83.7559C89.4824 82.2578 94.1406 77.5996 94.1406 71.873C94.1406 66.5469 90.1094 62.1465 84.9395 61.5566ZM80.9551 27.8281C80.9551 31.0332 78.3516 33.6387 75.1523 33.6387C71.9531 33.6387 69.3496 31.0312 69.3496 27.8281C69.3496 24.625 71.9531 22.0176 75.1523 22.0176C78.3516 22.0176 80.9551 24.623 80.9551 27.8281ZM43.7949 2.34375C45.8535 2.34375 47.5293 4.02149 47.5293 6.08594C47.5293 8.15039 45.8535 9.82812 43.7949 9.82812C41.7363 9.82812 40.0605 8.15039 40.0605 6.08594C40.0605 4.02149 41.7344 2.34375 43.7949 2.34375ZM30.9004 16.7676L38.1504 8.34375C38.4561 9.10546 38.9122 9.79776 39.4914 10.3793C40.0706 10.9609 40.761 11.4197 41.5215 11.7285L33.1836 18.9922C32.6808 18.025 31.8803 17.2451 30.9004 16.7676ZM28.6953 18.6035C30.1934 18.6035 31.4121 19.8242 31.4121 21.3262C31.4121 22.8281 30.1934 24.0488 28.6953 24.0488C27.1973 24.0488 25.9766 22.8281 25.9766 21.3262C25.9766 19.8242 27.1953 18.6035 28.6953 18.6035ZM36.0547 33.7637C36.0547 35.5586 35.4219 37.2383 34.2988 38.5508V33.877C34.2988 33.4629 34.0801 33.0781 33.7227 32.8672L29.3652 30.2949C29.1816 30.1855 28.9746 30.1328 28.7695 30.1328C28.5684 30.1328 28.3691 30.1836 28.1895 30.2871L23.6816 32.8594C23.5022 32.9619 23.3529 33.11 23.249 33.2887C23.1451 33.4673 23.0902 33.6703 23.0898 33.877V38.5508C21.9668 37.2383 21.334 35.5586 21.334 33.7637C21.334 29.6992 24.6348 26.3926 28.6934 26.3926C32.752 26.3926 36.0547 29.6992 36.0547 33.7637ZM49.873 6.08594C49.873 5.92578 49.8652 5.76758 49.8535 5.61133L73.291 19.8906C69.6934 20.7363 67.0078 23.9727 67.0078 27.8281C67.0078 28.0293 67.0176 28.2266 67.0312 28.4238L47.2383 11.0977C48.8281 10 49.873 8.16211 49.873 6.08594ZM70.8906 34.7734C72.1711 35.565 73.647 35.9837 75.1523 35.9824C77.1895 35.9824 79.0508 35.2285 80.4805 33.9883L78.8965 56.7402H64.8535L70.8906 34.7734ZM60.7949 59.4766C60.7949 59.2637 60.9746 59.084 61.1875 59.084H82.2031C82.416 59.084 82.5938 59.2637 82.5938 59.4766V61.4883H60.7949V59.4766ZM41.3281 48.3965H45.7852V50.9492H41.3281V48.3965ZM36.1758 49.0996C36.1758 48.7168 36.498 48.3945 36.8809 48.3945H38.9844V51.127C38.9844 52.3203 39.9551 53.293 41.1504 53.293H45.9648C47.1582 53.293 48.1309 52.3223 48.1309 51.127V48.3945H50.2344C50.6172 48.3945 50.9395 48.7168 50.9395 49.0996V61.4863H36.1758V49.0996ZM18.1328 48.3965H22.5898V50.9492H18.1328V48.3965ZM12.9785 49.0996C12.9785 48.7168 13.3008 48.3945 13.6836 48.3945H15.7871V51.127C15.7871 52.3203 16.7578 53.293 17.9531 53.293H22.7676C23.9609 53.293 24.9336 52.3223 24.9336 51.127V48.3945H27.0371C27.4199 48.3945 27.7422 48.7168 27.7422 49.0996V61.4863H12.9785V49.0996ZM83.7559 79.9141H10.3848C5.95117 79.9141 2.34375 76.3066 2.34375 71.873C2.34375 67.4395 5.95117 63.832 10.3848 63.832H83.7559C88.1895 63.832 91.7969 67.4395 91.7969 71.873C91.7969 76.3066 88.1895 79.9141 83.7559 79.9141ZM83.7539 66.625C80.9238 66.625 78.623 68.9297 78.623 71.7617C78.623 74.5938 80.9258 76.8984 83.7539 76.8984C86.582 76.8984 88.8848 74.5938 88.8848 71.7617C88.8848 68.9297 86.584 66.625 83.7539 66.625ZM83.7539 74.5527C82.2168 74.5527 80.9668 73.3008 80.9668 71.7598C80.9668 70.2187 82.2168 68.9668 83.7539 68.9668C85.291 68.9668 86.541 70.2187 86.541 71.7598C86.541 73.3008 85.291 74.5527 83.7539 74.5527ZM10.373 66.625C7.54297 66.625 5.24219 68.9297 5.24219 71.7617C5.24219 74.5938 7.54492 76.8984 10.373 76.8984C13.2031 76.8984 15.5039 74.5938 15.5039 71.7617C15.5039 68.9297 13.2012 66.625 10.373 66.625ZM10.373 74.5527C8.83594 74.5527 7.58594 73.3008 7.58594 71.7598C7.58594 70.2187 8.83594 68.9668 10.373 68.9668C11.9102 68.9668 13.1602 70.2187 13.1602 71.7598C13.1602 73.3008 11.9082 74.5527 10.373 74.5527ZM46.7637 71.7617C46.7637 72.4082 46.2383 72.9336 45.5918 72.9336H43.248C42.6016 72.9336 42.0762 72.4082 42.0762 71.7617C42.0762 71.1152 42.6016 70.5898 43.248 70.5898H45.5918C46.2383 70.5898 46.7637 71.1133 46.7637 71.7617ZM74.8887 71.7617C74.8887 72.4082 74.3633 72.9336 73.7168 72.9336H71.373C70.7266 72.9336 70.2012 72.4082 70.2012 71.7617C70.2012 71.1152 70.7266 70.5898 71.373 70.5898H73.7168C74.3633 70.5898 74.8887 71.1133 74.8887 71.7617ZM65.5137 71.7617C65.5137 72.4082 64.9883 72.9336 64.3418 72.9336H61.998C61.3516 72.9336 60.8262 72.4082 60.8262 71.7617C60.8262 71.1152 61.3516 70.5898 61.998 70.5898H64.3418C64.9883 70.5898 65.5137 71.1133 65.5137 71.7617ZM28.0137 71.7617C28.0137 72.4082 27.4883 72.9336 26.8418 72.9336H24.498C23.8516 72.9336 23.3262 72.4082 23.3262 71.7617C23.3262 71.1152 23.8516 70.5898 24.498 70.5898H26.8418C27.4902 70.5898 28.0137 71.1133 28.0137 71.7617ZM37.3887 71.7617C37.3887 72.4082 36.8633 72.9336 36.2168 72.9336H33.873C33.2266 72.9336 32.7012 72.4082 32.7012 71.7617C32.7012 71.1152 33.2266 70.5898 33.873 70.5898H36.2168C36.8652 70.5898 37.3887 71.1133 37.3887 71.7617ZM56.1387 71.7617C56.1387 72.4082 55.6133 72.9336 54.9668 72.9336H52.623C51.9766 72.9336 51.4512 72.4082 51.4512 71.7617C51.4512 71.1152 51.9766 70.5898 52.623 70.5898H54.9668C55.6133 70.5898 56.1387 71.1133 56.1387 71.7617Z" fill="#3E87E7"/>
</svg>
