<svg width="93" height="91" viewBox="0 0 93 91" fill="none" xmlns="http://www.w3.org/2000/svg">
<path d="M54.3203 64.7219C54.0702 66.2604 53.6666 67.77 53.1156 69.2281L58.0078 73.6609C57.331 75.1007 56.5389 76.4833 55.6391 77.7953L49.3578 75.7703C48.3671 76.9809 47.2579 78.0895 46.0469 79.0797L48.0719 85.3609C46.7595 86.2602 45.3769 87.0523 43.9375 87.7297L39.5047 82.8375C38.0641 83.3828 36.5594 83.7875 34.9984 84.0422L33.6031 90.5047C32.8141 90.5672 32.0219 90.625 31.2156 90.625C30.4094 90.625 29.6172 90.5672 28.8266 90.5047L27.4313 84.0422C25.8927 83.7921 24.3831 83.3885 22.925 82.8375L18.4922 87.7297C17.0524 87.0529 15.6698 86.2607 14.3578 85.3609L16.3828 79.0797C15.1727 78.0891 14.0641 76.9805 13.0734 75.7703L6.79219 77.7953C5.89297 76.483 5.10083 75.1004 4.42344 73.6609L9.31563 69.2281C8.76443 67.7701 8.36085 66.2605 8.11094 64.7219L1.64844 63.3266C1.58594 62.5359 1.52813 61.7438 1.52813 60.9375C1.52813 60.1312 1.58594 59.3391 1.64844 58.5484L8.11094 57.1531C8.36105 55.6146 8.76462 54.105 9.31563 52.6469L4.42344 48.2141C5.10938 46.7703 5.89063 45.3828 6.79219 44.0797L13.0734 46.1047C14.0642 44.8941 15.1733 43.7855 16.3844 42.7953L14.3594 36.5141C15.6717 35.6148 17.0543 34.8227 18.4938 34.1453L22.9266 39.0375C24.3846 38.4863 25.8942 38.0827 27.4328 37.8328L28.8281 31.3703C29.6172 31.3078 30.4094 31.25 31.2156 31.25C32.0219 31.25 32.8141 31.3078 33.6047 31.3703L35 37.8328C36.5385 38.0829 38.0482 38.4865 39.5063 39.0375L43.9391 34.1453C45.3828 34.8312 46.7703 35.6125 48.0734 36.5141L46.0484 42.7953C47.259 43.7861 48.3676 44.8952 49.3578 46.1063L55.6391 44.0812C56.5383 45.3936 57.3304 46.7762 58.0078 48.2156L53.1156 52.6484C53.6609 54.0891 54.0656 55.5937 54.3203 57.1547L60.7828 58.55C60.8453 59.3391 60.9031 60.1312 60.9031 60.9375C60.9031 61.7438 60.8453 62.5359 60.7828 63.3266L54.3203 64.7219ZM31.2156 45.3125C22.5859 45.3125 15.5906 52.3078 15.5906 60.9375C15.5906 69.5672 22.5859 76.5625 31.2156 76.5625C39.8453 76.5625 46.8406 69.5672 46.8406 60.9375C46.8406 52.3078 39.8453 45.3125 31.2156 45.3125ZM75.9953 20.7891C75.7551 21.5898 75.4352 22.3645 75.0406 23.1016L77.5078 27.8297C76.6759 28.8819 75.7241 29.8337 74.6719 30.6656L69.9438 28.1984C69.2073 28.5944 68.4325 28.9142 67.6313 29.1531L66.0313 34.2469C65.3719 34.325 64.7063 34.375 64.0281 34.375C63.35 34.375 62.6844 34.325 62.0266 34.2484L60.4266 29.1547C59.6256 28.9151 58.8508 28.5953 58.1141 28.2L53.3859 30.6672C52.3337 29.8352 51.382 28.8835 50.55 27.8313L53.0172 23.1031C52.6213 22.3667 52.3014 21.5919 52.0625 20.7906L46.9688 19.1906C46.8906 18.5312 46.8406 17.8656 46.8406 17.1875C46.8406 16.5094 46.8906 15.8438 46.9672 15.1859L52.0609 13.5859C52.3031 12.7781 52.6234 12.0031 53.0156 11.2734L50.5484 6.54531C51.3804 5.49305 52.3321 4.54132 53.3844 3.70938L58.1125 6.17656C58.8489 5.78064 59.6238 5.46076 60.425 5.22188L62.025 0.128125C62.6844 0.05 63.35 0 64.0281 0C64.7063 0 65.3719 0.0500001 66.0297 0.126563L67.6297 5.22031C68.4375 5.4625 69.2125 5.78281 69.9422 6.175L74.6703 3.70781C75.7226 4.53976 76.6743 5.49149 77.5063 6.54375L75.0391 11.2719C75.4328 12.0016 75.7516 12.7766 75.9938 13.5844L81.0875 15.1844C81.1656 15.8438 81.2156 16.5094 81.2156 17.1875C81.2156 17.8656 81.1656 18.5312 81.0891 19.1891L75.9953 20.7891ZM64.0281 10.9375C62.3705 10.9375 60.7808 11.596 59.6087 12.7681C58.4366 13.9402 57.7781 15.5299 57.7781 17.1875C57.7781 18.8451 58.4366 20.4348 59.6087 21.6069C60.7808 22.779 62.3705 23.4375 64.0281 23.4375C65.6857 23.4375 67.2754 22.779 68.4475 21.6069C69.6197 20.4348 70.2781 18.8451 70.2781 17.1875C70.2781 15.5299 69.6197 13.9402 68.4475 12.7681C67.2754 11.596 65.6857 10.9375 64.0281 10.9375ZM88.6203 56.0484C88.384 56.9056 88.0434 57.7305 87.6063 58.5047L89.1609 61.7766C88.4553 62.6775 87.6431 63.4897 86.7422 64.1953L83.4703 62.6406C82.6962 63.0781 81.8713 63.4186 81.0141 63.6547L79.7984 67.0734C79.2375 67.1422 78.6703 67.1875 78.0906 67.1875C77.5109 67.1875 76.9438 67.1422 76.3828 67.0734L75.1672 63.6547C74.3101 63.4183 73.4852 63.0778 72.7109 62.6406L69.4391 64.1953C68.5381 63.4897 67.726 62.6775 67.0203 61.7766L68.575 58.5047C68.1379 57.731 67.7973 56.9066 67.5609 56.05L64.1422 54.8344C64.0734 54.2719 64.0281 53.7047 64.0281 53.125C64.0281 52.5453 64.0734 51.9781 64.1422 51.4172L67.5609 50.2016C67.797 49.3448 68.1376 48.5204 68.575 47.7469L67.0203 44.475C67.726 43.5741 68.5381 42.7619 69.4391 42.0563L72.7109 43.6109C73.485 43.1735 74.31 42.8329 75.1672 42.5969L76.3828 39.1781C76.9438 39.1078 77.5109 39.0625 78.0906 39.0625C78.6703 39.0625 79.2375 39.1078 79.7984 39.1766L81.0141 42.5953C81.8712 42.8317 82.6961 43.1722 83.4703 43.6094L86.7422 42.0547C87.6431 42.7603 88.4553 43.5725 89.1609 44.4734L87.6063 47.7453C88.0406 48.5109 88.3797 49.3344 88.6203 50.2016L92.0391 51.4172C92.1078 51.9781 92.1531 52.5453 92.1531 53.125C92.1531 53.7047 92.1078 54.2719 92.0391 54.8328L88.6203 56.0484ZM78.0906 48.4375C76.8474 48.4375 75.6552 48.9314 74.7761 49.8104C73.897 50.6895 73.4031 51.8818 73.4031 53.125C73.4031 54.3682 73.897 55.5605 74.7761 56.4396C75.6552 57.3186 76.8474 57.8125 78.0906 57.8125C79.3338 57.8125 80.5261 57.3186 81.4052 56.4396C82.2843 55.5605 82.7781 54.3682 82.7781 53.125C82.7781 51.8818 82.2843 50.6895 81.4052 49.8104C80.5261 48.9314 79.3338 48.4375 78.0906 48.4375ZM92.4594 3.15625L83.1141 1.2875L81.2453 10.6312L84.3094 11.2453L85.1516 7.03906C86.6736 10.2058 87.4644 13.674 87.4656 17.1875C87.4861 22.5159 85.6707 27.6888 82.325 31.8359L84.7641 33.7906C88.5308 29.0759 90.5851 23.2221 90.5906 17.1875C90.5906 13.0953 89.6453 9.06094 87.8469 5.42031L91.8469 6.22031L92.4594 3.15625ZM33.8828 16.0828L31.6734 18.2922L33.7969 20.4156C32.9378 20.3539 32.0769 20.3195 31.2156 20.3125C25.2576 20.3065 19.3715 21.6138 13.9762 24.1414C8.5809 26.6689 3.80897 30.3545 0 34.9359L2.4 36.9375C5.91596 32.7081 10.3209 29.3056 15.3015 26.9722C20.282 24.6389 25.7156 23.432 31.2156 23.4375C32.0109 23.4375 32.8047 23.4828 33.5984 23.5328L31.6734 25.4578L33.8828 27.6672L39.675 21.875L33.8828 16.0828Z" fill="url(#paint0_linear_750_3847)"/>
<defs>
<linearGradient id="paint0_linear_750_3847" x1="46.2297" y1="0" x2="46.2297" y2="90.625" gradientUnits="userSpaceOnUse">
<stop stop-color="#A3B8E8"/>
<stop offset="1" stop-color="#2C83FF"/>
</linearGradient>
</defs>
</svg>
