<svg width="73" height="88" viewBox="0 0 73 88" fill="none" xmlns="http://www.w3.org/2000/svg">
<path d="M34.7616 87.2719C35.7207 87.6282 36.7759 87.6282 37.7351 87.2719C56.4788 80.4281 67.8507 67.0422 71.5444 47.4031C72.9882 36.8812 71.8679 26.7687 72.2147 16.5328C72.2706 16.096 72.2342 15.6523 72.1079 15.2304C71.9817 14.8085 71.7683 14.4178 71.4816 14.0836C71.1949 13.7493 70.8412 13.4789 70.4435 13.2898C70.0458 13.1008 69.6128 12.9972 69.1726 12.9859C59.021 11.7281 49.1538 7.81405 39.0022 1.01718C38.2334 0.360164 37.2552 -0.000572301 36.2439 6.81531e-07C35.2325 0.000573664 34.2547 0.362419 33.4866 1.0203C23.3382 7.81405 13.471 11.7281 3.33506 12.9844C2.89388 12.9947 2.45979 13.0975 2.06078 13.286C1.66178 13.4745 1.30675 13.7446 1.0186 14.0788C0.730452 14.4131 0.515595 14.804 0.387899 15.2264C0.260204 15.6489 0.222507 16.0934 0.277245 16.5312C0.408495 20.0781 0.339746 23.6375 0.269433 27.4062C-1.79619 54.2781 7.85537 77.7687 34.7616 87.2719ZM3.39443 27.4656C3.46318 23.8219 3.53506 20.0531 3.40068 16.4344C3.39912 16.0922 3.36475 16.1328 3.70381 16.0891C14.3507 14.7703 24.6616 10.6906 35.221 3.6203C36.1319 3.01405 36.3616 3.01561 37.2679 3.61874C47.8304 10.6906 58.1413 14.7703 68.8054 16.0906C69.1163 16.1172 69.0991 16.1078 69.0897 16.4281C68.7382 26.6172 69.8507 36.6297 68.4601 46.9062C64.9757 65.2125 53.8382 79.0047 35.8288 84.3375C10.1554 75.2203 1.43037 53.0172 3.39443 27.4656Z" fill="#1D77EE"/>
<path d="M47.6618 73.35C47.9198 73.6743 48.296 73.8828 48.7077 73.9296C49.1194 73.9765 49.5328 73.858 49.8571 73.6C55.3765 69.191 59.6665 63.434 62.3133 56.8844C62.4714 56.5013 62.4709 56.0711 62.3117 55.6884C62.1526 55.3057 61.848 55.0019 61.4649 54.8438C61.0818 54.6857 60.6516 54.6863 60.2689 54.8454C59.8862 55.0045 59.5824 55.3091 59.4243 55.6922C56.9986 61.7617 53.0289 67.092 47.9087 71.1547C47.5849 71.4132 47.377 71.7896 47.3307 72.2013C47.2844 72.6129 47.4035 73.0261 47.6618 73.35ZM7.99615 32.85C8.20148 32.8529 8.40536 32.8153 8.59614 32.7393C8.78692 32.6634 8.96086 32.5506 9.108 32.4073C9.25515 32.2641 9.37262 32.0933 9.4537 31.9046C9.53478 31.716 9.57788 31.5132 9.58053 31.3078C9.62271 28.0391 9.71646 24.7391 9.72584 21.4266C14.7582 20.3853 19.667 18.8173 24.3711 16.7485C24.7381 16.5746 25.023 16.2647 25.1654 15.8844C25.3078 15.5041 25.2966 15.0833 25.1341 14.7111C24.9716 14.339 24.6706 14.0447 24.2948 13.8907C23.9191 13.7367 23.4981 13.735 23.1212 13.886C18.2376 16.0362 13.1234 17.6189 7.87896 18.6032C7.51817 18.6692 7.19211 18.86 6.95786 19.1422C6.72362 19.4245 6.59612 19.7801 6.59771 20.1469C6.61178 22.6032 6.5649 25.061 6.51959 27.5235C6.75396 29.2266 5.48053 32.561 7.99615 32.85ZM22.2462 49.8469C22.5458 50.3415 22.9683 50.75 23.4727 51.0329C23.9771 51.3157 24.546 51.4632 25.1243 51.461H33.118V60.7235C33.1189 61.4802 33.3741 62.2146 33.8426 62.8088C34.311 63.4031 34.9656 63.8227 35.7012 64.0002C36.4367 64.1777 37.2106 64.1029 37.8986 63.7878C38.5865 63.4727 39.1486 62.9355 39.4946 62.2625L50.3696 41.025C50.6269 40.5102 50.7491 39.9384 50.7246 39.3633C50.7001 38.7883 50.5298 38.2289 50.2297 37.7378C49.9295 37.2467 49.5094 36.84 49.0088 36.556C48.5082 36.2719 47.9436 36.1199 47.368 36.1141H39.3712V26.85C39.3696 26.0939 39.1141 25.3602 38.6457 24.7666C38.1774 24.173 37.5232 23.7538 36.7882 23.5764C36.0532 23.3989 35.2799 23.4734 34.5922 23.788C33.9046 24.1025 33.3426 24.6388 32.9962 25.311L22.1211 46.5485C21.8555 47.0619 21.7272 47.6354 21.7489 48.2131C21.7705 48.7909 21.9413 49.3532 22.2446 49.8453L22.2462 49.8469ZM35.779 26.7375C35.7879 26.7101 35.8025 26.6848 35.8218 26.6632C35.841 26.6416 35.8645 26.6243 35.8908 26.6123C35.917 26.6002 35.9455 26.5938 35.9744 26.5933C36.0033 26.5928 36.032 26.5983 36.0587 26.6094C36.0872 26.6123 36.1149 26.6209 36.1401 26.6348C36.1652 26.6486 36.1873 26.6674 36.205 26.6901C36.2226 26.7127 36.2355 26.7387 36.2429 26.7665C36.2502 26.7942 36.2519 26.8232 36.2477 26.8516V37.6766C36.2477 38.091 36.4123 38.4884 36.7054 38.7814C36.9984 39.0745 37.3958 39.2391 37.8102 39.2391H47.368C47.4104 39.2393 47.452 39.2503 47.4889 39.2712C47.5258 39.292 47.5568 39.3219 47.5789 39.3581C47.601 39.3943 47.6134 39.4355 47.6151 39.4778C47.6167 39.5202 47.6075 39.5622 47.5883 39.6L36.7149 60.8375C36.6892 60.8868 36.6478 60.926 36.5972 60.949C36.5466 60.9719 36.4898 60.9772 36.4359 60.9641C36.3819 60.951 36.3339 60.9201 36.2995 60.8765C36.2651 60.8329 36.2463 60.779 36.2462 60.7235V49.8985C36.2462 49.4841 36.0815 49.0866 35.7885 48.7936C35.4955 48.5006 35.0981 48.336 34.6837 48.336H25.1258C25.0835 48.3358 25.0418 48.3247 25.0049 48.3039C24.968 48.2831 24.9371 48.2531 24.915 48.217C24.8929 48.1808 24.8804 48.1396 24.8788 48.0972C24.8771 48.0549 24.8863 48.0128 24.9055 47.975L35.779 26.7375Z" fill="#1D77EE"/>
</svg>
