<svg width="71" height="88" viewBox="0 0 71 88" fill="none" xmlns="http://www.w3.org/2000/svg">
<path d="M68.9298 69.3828L48.2064 33.025C47.2669 31.3747 46.7726 29.5084 46.772 27.6094V10.7562C48.0585 10.429 49.1819 9.64447 49.932 8.54928C50.6822 7.45409 51.0079 6.1232 50.8483 4.80535C50.6886 3.4875 50.0545 2.27288 49.0645 1.38852C48.0745 0.504151 46.7963 0.0105612 45.4689 0H24.5939C23.2233 0.0082392 21.906 0.531854 20.9038 1.46678C19.9015 2.4017 19.2878 3.67949 19.1844 5.04619C19.0811 6.41289 19.4957 7.76845 20.346 8.84345C21.1962 9.91845 22.4198 10.6342 23.7736 10.8484V27.6094C23.773 29.5084 23.2787 31.3747 22.3392 33.025L1.61731 69.3844C-3.09988 77.0562 3.1345 87.8094 12.1486 87.5H58.3829C67.397 87.8 73.6533 77.0734 68.9298 69.3828ZM22.2517 5.46562C22.2525 4.84511 22.4994 4.25024 22.9382 3.81147C23.3769 3.37269 23.9718 3.12583 24.5923 3.125H45.4689C46.0896 3.125 46.685 3.3716 47.1239 3.81055C47.5629 4.24951 47.8095 4.84485 47.8095 5.46562C47.8095 6.0864 47.5629 6.68174 47.1239 7.1207C46.685 7.55965 46.0896 7.80625 45.4689 7.80625H24.5939C23.9734 7.80542 23.3785 7.55856 22.9397 7.11978C22.5009 6.68101 22.2525 6.08614 22.2517 5.46562ZM25.0532 34.5719C26.2605 32.4499 26.8958 30.0507 26.897 27.6094V10.9312H43.647V27.6094C43.3454 32.0406 47.0142 37.1 49.0376 40.7969C47.2983 40.415 45.5214 40.2315 43.7407 40.25C40.0425 40.1593 36.3845 41.0333 33.1267 42.7859C28.8714 44.9154 24.0199 45.5394 19.3642 44.5562L25.0532 34.5719ZM66.1657 79.8984C65.3802 81.2661 64.246 82.4011 62.8787 83.1875C61.5115 83.9739 59.9602 84.3837 58.3829 84.375H12.1486C10.5809 84.358 9.04464 83.9341 7.69015 83.1447C6.33565 82.3554 5.20943 81.2278 4.42181 79.8723C3.63419 78.5168 3.2122 76.9799 3.19717 75.4123C3.18213 73.8447 3.57458 72.3 4.33606 70.9297L17.7595 47.3719C22.7782 49.0719 31.272 47.7281 34.4798 45.6031C37.3184 44.0607 40.5128 43.2923 43.7423 43.375C46.3554 43.2905 48.9541 43.7935 51.347 44.8469L66.2126 70.9297C66.9986 72.2952 67.4085 73.8446 67.4006 75.4202C67.3926 76.9957 66.9655 78.541 66.1657 79.8984Z" fill="url(#paint0_linear_750_3886)"/>
<path d="M18.1127 62.5251C16.4617 62.5251 14.8784 63.1809 13.711 64.3484C12.5435 65.5158 11.8877 67.0991 11.8877 68.7501C11.8877 70.4011 12.5435 71.9844 13.711 73.1518C14.8784 74.3193 16.4617 74.9751 18.1127 74.9751C19.7637 74.9751 21.347 74.3193 22.5144 73.1518C23.6818 71.9844 24.3377 70.4011 24.3377 68.7501C24.3377 67.0991 23.6818 65.5158 22.5144 64.3484C21.347 63.1809 19.7637 62.5251 18.1127 62.5251ZM18.1127 71.8501C17.2905 71.8501 16.502 71.5235 15.9207 70.9421C15.3393 70.3608 15.0127 69.5723 15.0127 68.7501C15.0127 67.9279 15.3393 67.1394 15.9207 66.5581C16.502 65.9767 17.2905 65.6501 18.1127 65.6501C18.9349 65.6501 19.7234 65.9767 20.3047 66.5581C20.8861 67.1394 21.2127 67.9279 21.2127 68.7501C21.2127 69.5723 20.8861 70.3608 20.3047 70.9421C19.7234 71.5235 18.9349 71.8501 18.1127 71.8501ZM48.5002 70.3642C46.8665 70.39 45.3085 71.0572 44.1623 72.2216C43.0162 73.3861 42.3738 74.9545 42.3738 76.5884C42.3738 78.2223 43.0162 79.7907 44.1623 80.9551C45.3085 82.1196 46.8665 82.7867 48.5002 82.8126C50.1339 82.7867 51.6919 82.1196 52.838 80.9551C53.9842 79.7907 54.6266 78.2223 54.6266 76.5884C54.6266 74.9545 53.9842 73.3861 52.838 72.2216C51.6919 71.0572 50.1339 70.39 48.5002 70.3642ZM48.5002 79.6876C47.6903 79.6694 46.9197 79.3349 46.3533 78.7557C45.7869 78.1764 45.4698 77.3985 45.4698 76.5884C45.4698 75.7783 45.7869 75.0003 46.3533 74.4211C46.9197 73.8419 47.6903 73.5074 48.5002 73.4892C49.3101 73.5074 50.0807 73.8419 50.6471 74.4211C51.2135 75.0003 51.5306 75.7783 51.5306 76.5884C51.5306 77.3985 51.2135 78.1764 50.6471 78.7557C50.0807 79.3349 49.3101 79.6694 48.5002 79.6876ZM46.1611 58.661C46.1611 57.0101 45.5053 55.4267 44.3379 54.2593C43.1705 53.0919 41.5871 52.436 39.9361 52.436C38.2852 52.436 36.7018 53.0919 35.5344 54.2593C34.367 55.4267 33.7111 57.0101 33.7111 58.661C33.7111 60.312 34.367 61.8954 35.5344 63.0628C36.7018 64.2302 38.2852 64.886 39.9361 64.886C41.5871 64.886 43.1705 64.2302 44.3379 63.0628C45.5053 61.8954 46.1611 60.312 46.1611 58.661ZM39.9346 61.761C39.1247 61.7429 38.354 61.4083 37.7877 60.8291C37.2213 60.2499 36.9042 59.4719 36.9042 58.6618C36.9042 57.8517 37.2213 57.0738 37.7877 56.4945C38.354 55.9153 39.1247 55.5808 39.9346 55.5626C40.7445 55.5808 41.5151 55.9153 42.0815 56.4945C42.6479 57.0738 42.965 57.8517 42.965 58.6618C42.965 59.4719 42.6479 60.2499 42.0815 60.8291C41.5151 61.4083 40.7445 61.7429 39.9346 61.761ZM26.7143 57.0985C26.2999 57.0985 25.9024 57.2632 25.6094 57.5562C25.3164 57.8492 25.1518 58.2466 25.1518 58.661C25.1518 59.0754 25.3164 59.4729 25.6094 59.7659C25.9024 60.0589 26.2999 60.2235 26.7143 60.2235C27.1287 60.2235 27.5261 60.0589 27.8191 59.7659C28.1121 59.4729 28.2768 59.0754 28.2768 58.661C28.2768 58.2466 28.1121 57.8492 27.8191 57.5562C27.5261 57.2632 27.1287 57.0985 26.7143 57.0985ZM20.6908 77.5048C20.2764 77.5048 19.879 77.6694 19.586 77.9624C19.2929 78.2555 19.1283 78.6529 19.1283 79.0673C19.1283 79.4817 19.2929 79.8791 19.586 80.1721C19.879 80.4652 20.2764 80.6298 20.6908 80.6298C21.1052 80.6298 21.5026 80.4652 21.7957 80.1721C22.0887 79.8791 22.2533 79.4817 22.2533 79.0673C22.2533 78.6529 22.0887 78.2555 21.7957 77.9624C21.5026 77.6694 21.1052 77.5048 20.6908 77.5048ZM33.7111 73.4376C33.2967 73.4376 32.8993 73.6022 32.6063 73.8952C32.3132 74.1883 32.1486 74.5857 32.1486 75.0001C32.1486 75.4145 32.3132 75.8119 32.6063 76.105C32.8993 76.398 33.2967 76.5626 33.7111 76.5626C34.1255 76.5626 34.523 76.398 34.816 76.105C35.109 75.8119 35.2736 75.4145 35.2736 75.0001C35.2736 74.5857 35.109 74.1883 34.816 73.8952C34.523 73.6022 34.1255 73.4376 33.7111 73.4376ZM59.9346 71.8501C59.5202 71.8501 59.1227 72.0147 58.8297 72.3077C58.5367 72.6008 58.3721 72.9982 58.3721 73.4126C58.3721 73.827 58.5367 74.2244 58.8297 74.5175C59.1227 74.8105 59.5202 74.9751 59.9346 74.9751C60.349 74.9751 60.7464 74.8105 61.0394 74.5175C61.3325 74.2244 61.4971 73.827 61.4971 73.4126C61.4971 72.9982 61.3325 72.6008 61.0394 72.3077C60.7464 72.0147 60.349 71.8501 59.9346 71.8501ZM53.1611 60.2235C52.7467 60.2235 52.3493 60.3882 52.0563 60.6812C51.7633 60.9742 51.5986 61.3716 51.5986 61.786C51.5986 62.2004 51.7633 62.5979 52.0563 62.8909C52.3493 63.1839 52.7467 63.3485 53.1611 63.3485C53.5755 63.3485 53.973 63.1839 54.266 62.8909C54.559 62.5979 54.7236 62.2004 54.7236 61.786C54.7236 61.3716 54.559 60.9742 54.266 60.6812C53.973 60.3882 53.5755 60.2235 53.1611 60.2235Z" fill="url(#paint1_linear_750_3886)"/>
<defs>
<linearGradient id="paint0_linear_750_3886" x1="59.2734" y1="84.75" x2="22.2734" y2="-1.30605e-06" gradientUnits="userSpaceOnUse">
<stop stop-color="#BB46FF"/>
<stop offset="1" stop-color="#E3B3FF"/>
</linearGradient>
<linearGradient id="paint1_linear_750_3886" x1="53.5691" y1="81.8557" x2="46.3553" y2="48.3833" gradientUnits="userSpaceOnUse">
<stop stop-color="#BB46FF"/>
<stop offset="1" stop-color="#E3B3FF"/>
</linearGradient>
</defs>
</svg>
