<svg width="100" height="100" viewBox="0 0 100 100" fill="none" xmlns="http://www.w3.org/2000/svg">
<path d="M50 0C36.7437 0.0148882 24.0347 5.28751 14.6611 14.6611C5.28751 24.0347 0.0148882 36.7437 0 50C2.74792 116.331 97.2625 116.312 100 50C99.9851 36.7437 94.7125 24.0347 85.3389 14.6611C75.9653 5.28751 63.2563 0.0148882 50 0ZM50 96.9687C37.5475 96.9544 25.6092 92.0013 16.8039 83.1961C7.99867 74.3908 3.04559 62.4525 3.03125 50C5.61042 -12.3125 94.4021 -12.2917 96.9687 50C96.955 62.4527 92.0021 74.3913 83.1967 83.1967C74.3913 92.0021 62.4527 96.955 50 96.9687ZM11.4062 42.0646C12.9452 34.51 16.6725 27.575 22.1239 22.1232C27.5754 16.6714 34.5101 12.9437 42.0646 11.4042C42.4583 11.324 42.8676 11.4036 43.2027 11.6253C43.5377 11.847 43.7709 12.1928 43.851 12.5865C43.9312 12.9801 43.8516 13.3895 43.6299 13.7245C43.4082 14.0596 43.0624 14.2928 42.6688 14.3729C35.6969 15.7945 29.2972 19.2353 24.2663 24.267C19.2354 29.2986 15.7956 35.6988 14.375 42.6708C14.2946 43.0645 14.0611 43.4101 13.7259 43.6317C13.3907 43.8532 12.9812 43.9325 12.5875 43.8521C12.1938 43.7717 11.8482 43.5382 11.6267 43.203C11.4051 42.8678 11.3259 42.4583 11.4062 42.0646ZM43.8542 87.4104C43.7729 87.8036 43.5392 88.1486 43.2042 88.37C42.8692 88.5913 42.4602 88.671 42.0667 88.5917C34.5121 87.0546 27.5769 83.3285 22.1252 77.8775C16.6735 72.4266 12.9464 65.4919 11.4083 57.9375C11.3341 57.5468 11.4166 57.1426 11.6379 56.8121C11.8592 56.4817 12.2015 56.2515 12.5911 56.1714C12.9806 56.0912 13.386 56.1675 13.7198 56.3838C14.0536 56.6 14.2889 56.9388 14.375 57.3271C15.7949 64.3001 19.235 70.7013 24.2669 75.7331C29.2987 80.765 35.6999 84.2051 42.6729 85.625C43.0662 85.7053 43.4115 85.9385 43.633 86.2732C43.8545 86.608 43.9341 87.017 43.8542 87.4104ZM88.5938 57.9312C87.0528 65.538 83.2876 72.5159 77.7757 77.98C72.2637 83.4441 65.2533 87.1483 57.6333 88.6229C57.2624 88.6151 56.9072 88.4719 56.6347 88.2202C56.3622 87.9685 56.1912 87.6258 56.1541 87.2567C56.1169 86.8876 56.2161 86.5176 56.433 86.2166C56.6498 85.9157 56.9694 85.7045 57.3312 85.6229C64.3031 84.2013 70.7028 80.7605 75.7337 75.7289C80.7645 70.6972 84.2044 64.297 85.625 57.325C85.7054 56.9313 85.9389 56.5857 86.2741 56.3642C86.6093 56.1426 87.0188 56.0634 87.4125 56.1437C87.8062 56.2241 88.1518 56.4576 88.3733 56.7929C88.5948 57.1281 88.6741 57.5376 88.5938 57.9312ZM56.1458 12.5854C56.1853 12.3901 56.263 12.2045 56.3744 12.0394C56.4859 11.8742 56.6288 11.7326 56.7951 11.6229C56.9614 11.5131 57.1478 11.4373 57.3434 11.3997C57.5391 11.3622 57.7403 11.3637 57.9354 11.4042C65.49 12.9428 72.4249 16.6699 77.8764 22.1215C83.328 27.573 87.0552 34.5079 88.5938 42.0625C88.6618 42.4509 88.5758 42.8506 88.3538 43.1765C88.1319 43.5025 87.7915 43.729 87.4052 43.808C87.0188 43.8869 86.6169 43.8121 86.2848 43.5993C85.9528 43.3866 85.7168 43.0527 85.6271 42.6688C84.2053 35.6967 80.7642 29.2968 75.7322 24.2658C70.7001 19.2349 64.2995 15.7952 57.3271 14.375C56.9332 14.2942 56.5875 14.0603 56.366 13.7248C56.1445 13.3892 56.0653 12.9794 56.1458 12.5854ZM68.75 29.3L40.8958 40.0146C40.706 40.0878 40.5335 40.1999 40.3896 40.3437L40.3646 40.3708C40.2262 40.5132 40.1166 40.6808 40.0417 40.8646V40.8771L29.3062 68.7396C29.2007 69.0132 29.1768 69.3116 29.2375 69.5985C29.2982 69.8854 29.4409 70.1485 29.6483 70.3559C29.8557 70.5633 30.1188 70.706 30.4057 70.7667C30.6926 70.8274 30.991 70.8035 31.2646 70.6979L59.1208 59.9812C59.3107 59.908 59.4831 59.7959 59.6271 59.6521L59.6521 59.625C59.7905 59.4832 59.8995 59.3154 59.9729 59.1312V59.1187L70.7042 31.25C70.8022 30.9775 70.8205 30.6828 70.7572 30.4002C70.6938 30.1176 70.5513 29.859 70.3463 29.6544C70.1413 29.4499 69.8824 29.3079 69.5997 29.2452C69.317 29.1824 69.0223 29.2014 68.75 29.3ZM33.3583 66.6437L42.0104 44.1437L55.8563 57.9896L33.3583 66.6437ZM57.9979 55.85L44.1521 42.0042L66.6521 33.3521L57.9979 55.85ZM16.6667 51.5146H7.57708C7.18484 51.5 6.81351 51.334 6.54115 51.0513C6.26879 50.7687 6.11662 50.3915 6.11662 49.999C6.11662 49.6064 6.26879 49.2292 6.54115 48.9466C6.81351 48.6639 7.18484 48.4979 7.57708 48.4833H16.6667C17.0589 48.4979 17.4302 48.6639 17.7026 48.9466C17.975 49.2292 18.1271 49.6064 18.1271 49.999C18.1271 50.3915 17.975 50.7687 17.7026 51.0513C17.4302 51.334 17.0589 51.5 16.6667 51.5146ZM93.9375 50C93.9375 50.4017 93.7779 50.7869 93.4939 51.071C93.2098 51.355 92.8246 51.5146 92.4229 51.5146H83.3333C83.1296 51.5221 82.9264 51.4885 82.7359 51.4158C82.5454 51.343 82.3716 51.2326 82.2247 51.0911C82.0779 50.9496 81.9611 50.78 81.8814 50.5923C81.8016 50.4047 81.7605 50.2029 81.7605 49.999C81.7605 49.7951 81.8016 49.5932 81.8814 49.4056C81.9611 49.2179 82.0779 49.0483 82.2247 48.9068C82.3716 48.7653 82.5454 48.6549 82.7359 48.5821C82.9264 48.5094 83.1296 48.4758 83.3333 48.4833H92.4229C92.622 48.4833 92.8191 48.5226 93.003 48.5988C93.1869 48.6751 93.354 48.7868 93.4946 48.9277C93.6353 49.0685 93.7468 49.2358 93.8228 49.4198C93.8988 49.6037 93.9378 49.8009 93.9375 50ZM51.5167 83.3333V92.4229C51.5021 92.8152 51.3361 93.1865 51.0534 93.4588C50.7708 93.7312 50.3936 93.8834 50.001 93.8834C49.6085 93.8834 49.2313 93.7312 48.9487 93.4588C48.666 93.1865 48.5 92.8152 48.4854 92.4229V83.3333C48.5 82.9411 48.666 82.5698 48.9487 82.2974C49.2313 82.025 49.6085 81.8729 50.001 81.8729C50.3936 81.8729 50.7708 82.025 51.0534 82.2974C51.3361 82.5698 51.5021 82.9411 51.5167 83.3333ZM48.4854 16.6667V7.575C48.5 7.18275 48.666 6.81143 48.9487 6.53907C49.2313 6.26671 49.6085 6.11453 50.001 6.11453C50.3936 6.11453 50.7708 6.26671 51.0534 6.53907C51.3361 6.81143 51.5021 7.18275 51.5167 7.575V16.6667C51.5021 17.0589 51.3361 17.4302 51.0534 17.7026C50.7708 17.975 50.3936 18.1271 50.001 18.1271C49.6085 18.1271 49.2313 17.975 48.9487 17.7026C48.666 17.4302 48.5 17.0589 48.4854 16.6667Z" fill="url(#paint0_linear_750_3834)"/>
<defs>
<linearGradient id="paint0_linear_750_3834" x1="50" y1="0" x2="50" y2="99.7417" gradientUnits="userSpaceOnUse">
<stop stop-color="#FDC70C"/>
<stop offset="0.412" stop-color="#F3903F"/>
<stop offset="0.748" stop-color="#ED683C"/>
<stop offset="1" stop-color="#E93E3A"/>
</linearGradient>
</defs>
</svg>
