<svg width="100" height="100" viewBox="0 0 100 100" fill="none" xmlns="http://www.w3.org/2000/svg">
<path d="M38.7097 16.129H50V26.0238L61.874 16.129H77.4194V0H38.7097V16.129ZM41.9355 3.22581H74.1936V12.9032H60.7067L53.2258 19.1375V12.9032H41.9355V3.22581ZM45.1613 6.45161H48.3871V9.67742H45.1613V6.45161ZM64.5161 9.67742H51.6129V6.45161H64.5161V9.67742ZM70.9677 9.67742H67.7419V6.45161H70.9677V9.67742ZM80.8004 83.7173C86.1855 82.8661 90.3226 78.203 90.3226 72.5806V51.6129H83.871V49.3841C83.871 47.1915 82.6659 45.2228 80.7286 44.2131C82.6552 42.4435 83.871 39.9131 83.871 37.0968V33.871C83.871 28.5337 79.5308 24.1935 74.1936 24.1935C68.8562 24.1935 64.5161 28.5337 64.5161 33.871V37.0968C64.5161 41.2722 67.1788 44.8274 70.8921 46.1821L62.2353 54.8387H53.1903C53.0101 52.15 51.1633 49.8065 48.547 49.0581L41.9355 47.171V44.2903C43.9099 42.5175 45.1613 39.9548 45.1613 37.0968V33.871C45.1613 28.5337 40.8212 24.1935 35.4839 24.1935C30.1466 24.1935 25.8065 28.5337 25.8065 33.871V37.0968C25.8065 39.9532 27.0579 42.5159 29.0323 44.2903V47.1728L22.4208 49.0597C19.6659 49.8448 17.7419 52.3964 17.7419 55.2633V61.2903H11.2903V70.9677H14.5161V96.7742H0V100H100V96.7742H82.1044L80.8004 83.7173ZM67.7419 70.9677V63.571L79.171 52.1421C79.997 51.3159 80.4885 50.2063 80.5988 49.0486C80.6129 49.1613 80.6452 49.2675 80.6452 49.3841V69.3548C80.6452 72.0222 78.4738 74.1936 75.8064 74.1936H62.9032V70.9677H67.7419ZM62.9032 83.871H71.1214L72.4113 96.7742H62.9032V83.871ZM74.3629 83.871H77.573L78.8629 96.7742H75.6528L74.3629 83.871ZM83.871 69.3548V54.8387H87.0968V72.5806C87.0968 77.0272 83.4788 80.6452 79.0323 80.6452H62.9032V77.4194H75.8064C80.253 77.4194 83.871 73.8014 83.871 69.3548ZM67.7419 37.0968V33.871C67.7419 30.3129 70.6355 27.4194 74.1936 27.4194C77.7516 27.4194 80.6452 30.3129 80.6452 33.871V37.0968C80.6452 40.6548 77.7516 43.5484 74.1936 43.5484C70.6355 43.5484 67.7419 40.6548 67.7419 37.0968ZM63.571 58.0645L74.3321 47.3034C74.6721 46.9655 75.1317 46.7753 75.6111 46.7742C76.6083 46.7742 77.4194 47.5853 77.4194 48.5825C77.4182 49.0619 77.2281 49.5215 76.8901 49.8615L65.4611 61.2903H48.3871C47.4972 61.2903 46.7742 60.5673 46.7742 59.6774C46.7742 58.7875 47.4972 58.0645 48.3871 58.0645H63.571ZM29.0323 33.871C29.0323 30.3129 31.9258 27.4194 35.4839 27.4194C39.0419 27.4194 41.9355 30.3129 41.9355 33.871V37.0968C41.9355 40.6548 39.0419 43.5484 35.4839 43.5484C31.9258 43.5484 29.0323 40.6548 29.0323 37.0968V33.871ZM35.4839 46.7742C36.6163 46.7742 37.6984 46.5679 38.7097 46.2097V47.9421C38.3097 48.5595 37.1984 50 35.4839 50C33.7694 50 32.6581 48.5595 32.2581 47.9421V46.2095C33.2694 46.5679 34.3514 46.7742 35.4839 46.7742ZM20.9677 55.2631C20.9677 53.829 21.9308 52.5548 23.3069 52.1611L29.9514 50.2631C30.8869 51.4823 32.7077 53.2258 35.4839 53.2258C38.2601 53.2258 40.0806 51.4823 41.0163 50.2615L47.6609 52.1595C48.8968 52.5131 49.7583 53.5873 49.9306 54.8371H48.3871C45.7198 54.8371 43.5484 57.0085 43.5484 59.6758C43.5484 60.2438 43.6641 60.7823 43.8454 61.2887H20.9677V55.2631ZM14.5161 64.5161H64.5161V67.7419H14.5161V64.5161ZM17.7419 77.4194H22.5806V74.1936H17.7419V70.9677H59.6774V74.1936H25.8065V77.4194H59.6774V96.7742H55.8357L52.6099 90.3226H24.8095L21.5837 96.7742H17.7419V77.4194ZM52.2288 96.7742H25.1905L26.8034 93.5484H50.6159L52.2288 96.7742Z" fill="url(#paint0_linear_750_4101)"/>
<defs>
<linearGradient id="paint0_linear_750_4101" x1="50" y1="100" x2="50" y2="0" gradientUnits="userSpaceOnUse">
<stop stop-color="#9F2FFF"/>
<stop offset="1" stop-color="#0BB1D3"/>
</linearGradient>
</defs>
</svg>
