<svg width="92" height="59" viewBox="0 0 92 59" fill="none" xmlns="http://www.w3.org/2000/svg">
<path d="M90.3944 23.3356L78.2679 2.33192C77.6464 1.25555 76.6401 0.485044 75.4341 0.161998C74.2276 -0.161635 72.9714 0.00320775 71.8952 0.624497L64.9856 4.61356C63.9095 5.23504 63.1388 6.24129 62.8157 7.44715C62.6251 8.15355 62.6035 8.89494 62.7528 9.61122C58.403 10.7559 54.031 10.7454 48.8185 9.59794C43.2587 8.37333 40.5634 9.53407 36.9089 12.8005L28.2452 9.70555C28.6944 7.75926 27.8505 5.66297 26.0329 4.61375L19.1233 0.624497C18.0476 0.00320775 16.7909 -0.161245 15.5845 0.161998C14.3784 0.485044 13.3722 1.25575 12.7507 2.33192L0.62393 23.3358C-0.662008 25.5636 0.104008 28.4223 2.33155 29.7083L9.24112 33.6975C9.94547 34.1063 10.7453 34.3216 11.5597 34.3218C11.9663 34.3218 12.3763 34.2684 12.7802 34.16C13.8503 33.8733 14.7616 33.2329 15.3878 32.3407L20.5677 38.8093L20.4349 38.9983C18.4987 41.7509 19.6062 44.6827 21.7007 46.1563C22.4599 46.6903 23.3552 47.0378 24.2808 47.1325C24.1896 47.9876 24.3294 48.8511 24.7067 49.6647C25.5056 51.3874 27.2437 52.61 29.1353 52.7796C29.8458 52.8434 30.537 52.7546 31.1798 52.5265C31.5681 53.4915 32.2542 54.3263 33.1019 54.9223C34.5606 55.9481 36.523 56.2845 38.2339 55.4651C38.7677 56.4663 39.6423 57.3147 40.7689 57.8356C41.5024 58.1749 42.2503 58.3399 42.9774 58.3397C44.5567 58.3397 46.0382 57.5622 47.0626 56.1055L47.47 55.5262L51.8034 58.0493C52.7134 58.5794 53.6155 58.8106 54.4651 58.8106C56.3298 58.8106 57.9409 57.6956 58.8265 56.1757C59.2886 55.3821 59.5573 54.4714 59.5778 53.5511C61.4962 53.6016 63.1667 52.4741 64.0735 50.9177C64.5023 50.1815 64.7644 49.3444 64.8165 48.4927C65.8312 48.6097 66.8435 48.4063 67.7587 47.8823C69.4067 46.9389 70.4759 45.1024 70.4829 43.2034C70.4864 42.2872 70.2429 41.4268 69.7843 40.6765C70.5747 40.2042 71.2345 39.5204 71.6962 38.7268C72.6145 37.1479 72.7657 35.1046 71.7204 33.4475L75.2157 31.6628L75.4048 31.9901C76.0263 33.0663 77.0325 33.837 78.2386 34.16C78.6425 34.2684 79.0522 34.3218 79.4589 34.3218C80.2663 34.3218 81.062 34.1108 81.7776 33.6975L88.6872 29.7085C90.9146 28.4224 91.6806 25.5636 90.3944 23.3356ZM11.9714 31.1413C11.7765 31.1949 11.5729 31.2092 11.3724 31.1834C11.172 31.1576 10.9786 31.0923 10.8036 30.9911L3.89405 27.0016C3.1585 26.5772 2.90577 25.6333 3.33018 24.8979L15.4567 3.89422C15.6608 3.54071 15.9933 3.28739 16.3931 3.18016C16.5256 3.14449 16.6623 3.12637 16.7995 3.12626C17.0653 3.12626 17.3265 3.1954 17.5606 3.33055L24.4702 7.32C25.2058 7.74442 25.4587 8.68817 25.0341 9.42372L12.9073 30.4276C12.7036 30.7809 12.3712 31.0345 11.9714 31.1413ZM23.4991 43.6003C23.222 43.4054 21.895 42.3538 22.9907 40.796L26.5792 35.6944C27.6747 34.137 29.1126 35.0298 29.3896 35.2243C29.6667 35.4192 30.9935 36.469 29.9015 38.0261L29.9009 38.0266L29.9003 38.0276L29.8995 38.0288L26.3101 43.1315L26.3087 43.1333C25.2128 44.6884 23.7759 43.7954 23.4991 43.6003ZM31.1214 48.7778C30.6636 49.4286 30.089 49.7257 29.4142 49.6671C28.6392 49.5975 27.8692 49.0559 27.5419 48.3499C27.2567 47.735 27.344 47.0932 27.8017 46.4427L28.8661 44.9294L32.4552 39.8268L32.4571 39.8245L32.4577 39.8235L32.4581 39.8229L33.8855 37.7934C34.9813 36.2358 36.4198 37.1292 36.697 37.3243C36.9741 37.5192 38.3013 38.5708 37.2056 40.1286L36.8509 40.6329L31.8343 47.7645L31.1214 48.7778ZM34.8995 52.3659C34.6224 52.1712 33.2958 51.1204 34.3894 49.5634L34.3901 49.5622L34.3903 49.562L34.3907 49.5612L39.4044 42.4333L39.406 42.4313C40.5024 40.8745 41.9399 41.7688 42.2169 41.9634C42.494 42.1585 43.8206 43.21 42.7251 44.7675L41.4222 46.6196L38.0298 51.4427L38.0286 51.444L37.7106 51.896C36.6146 53.4544 35.1765 52.561 34.8995 52.3659ZM44.5064 54.3075C43.6689 55.4985 42.6273 55.2522 42.0804 54.9993C41.3253 54.6499 40.6771 53.8597 40.7778 52.9675L43.7845 48.6931C44.5901 48.2968 45.5528 48.6401 46.1366 49.2325C46.5593 49.6614 47.1433 50.5591 46.306 51.7497L44.5064 54.3075ZM68.9944 37.1556C68.8243 37.4481 67.8913 38.8604 66.2456 37.9042L59.9304 34.2272C59.5723 34.0188 59.146 33.9611 58.7454 34.0669C58.3448 34.1726 58.0026 34.4332 57.794 34.7913C57.6908 34.9686 57.6234 35.1645 57.5958 35.3678C57.5683 35.5712 57.5811 35.7779 57.6334 35.9763C57.6858 36.1747 57.7768 36.3609 57.9011 36.5241C58.0255 36.6873 58.1808 36.8244 58.3581 36.9276L64.6726 40.6042L64.6741 40.6052L66.3257 41.5669C67.0132 41.9673 67.3603 42.514 67.3577 43.1917C67.3548 43.9698 66.8813 44.7833 66.206 45.17C65.6177 45.5067 64.9712 45.4749 64.2835 45.0745L62.2399 43.8845C62.2396 43.8842 62.2392 43.8839 62.2388 43.8837L62.2382 43.8835L55.8599 40.1696C55.5018 39.9612 55.0755 39.9035 54.6749 40.0092C54.2743 40.115 53.9321 40.3756 53.7235 40.7337C53.6202 40.911 53.5529 41.1069 53.5253 41.3102C53.4978 41.5135 53.5106 41.7203 53.5629 41.9187C53.6153 42.1171 53.7063 42.3032 53.8306 42.4665C53.955 42.6297 54.1102 42.7668 54.2876 42.87L60.6634 46.5823L60.6653 46.5837C62.311 47.5427 61.5437 49.0518 61.3729 49.3446C61.2024 49.6372 60.2687 51.0493 58.6226 50.0909L56.9952 49.1431L56.9925 49.1415L56.9919 49.1411L51.7896 46.112C51.6123 46.0087 51.4163 45.9414 51.213 45.9139C51.0097 45.8863 50.8029 45.8991 50.6045 45.9515C50.4062 46.0039 50.22 46.0948 50.0568 46.2191C49.8936 46.3435 49.7564 46.4987 49.6532 46.6761C49.5499 46.8534 49.4826 47.0493 49.455 47.2526C49.4275 47.4559 49.4402 47.6627 49.4926 47.8611C49.545 48.0595 49.636 48.2456 49.7603 48.4088C49.8847 48.5721 50.0399 48.7092 50.2173 48.8124L55.4196 51.8415L55.422 51.843C57.0636 52.802 56.2968 54.3095 56.1265 54.602C55.956 54.8948 55.022 56.3069 53.3761 55.3483L49.2341 52.9368C50.3028 50.9458 49.9939 48.6936 48.3632 47.0388C47.6415 46.3063 46.7667 45.8128 45.8495 45.5714C46.9376 43.1321 45.8591 40.705 44.0159 39.4077C43.0663 38.7391 41.9015 38.3622 40.7347 38.4083C40.5636 36.9229 39.6899 35.6081 38.4952 34.7677C36.888 33.637 34.6685 33.3434 32.8481 34.5114C32.446 33.7798 31.8685 33.1462 31.1868 32.6671C29.0921 31.195 25.9591 31.1446 24.0237 33.896L22.4401 36.1473L17.079 29.4524L26.8519 12.5253L34.3667 15.2099C34.0638 15.5067 33.7534 15.8124 33.431 16.1302C32.6851 16.8669 31.936 17.6003 31.1837 18.3304C30.8982 18.6068 30.7288 18.9817 30.7099 19.3786L30.2962 28.0878C30.1894 30.3411 31.2829 31.3757 31.9442 31.7917C33.381 32.6956 35.4474 32.505 37.7636 31.255C39.731 30.1929 40.8683 27.7628 41.8718 25.6188C42.0757 25.1835 42.2714 24.7655 42.4653 24.3759L42.8528 24.1923C45.5103 22.9307 47.2272 22.2085 48.9642 23.2114L68.2858 34.3956C69.931 35.3536 69.1647 36.8628 68.9944 37.1556ZM69.1187 31.2671L50.528 20.5061C47.2802 18.6309 44.2163 20.0862 41.5126 21.3694C41.2308 21.5039 40.9483 21.6368 40.6649 21.7681C40.3545 21.9112 40.0997 22.1523 39.9394 22.4542C39.6308 23.0354 39.3312 23.6755 39.0413 24.2946C38.2427 26.0003 37.3378 27.9337 36.2784 28.5056C34.8317 29.2868 33.8728 29.3138 33.6079 29.1473C33.495 29.0763 33.3923 28.7671 33.4173 28.2366L33.8017 20.1442C34.4107 19.5503 35.018 18.9545 35.6235 18.3569C41.2976 12.7671 42.6456 11.4395 48.1464 12.6497C51.9122 13.4786 57.5731 14.3247 64.1358 12.4723L73.6507 28.9528L69.1187 31.2671ZM87.1243 27.002L80.2147 30.9913C79.8612 31.1952 79.4466 31.2485 79.047 31.1415C78.6474 31.0345 78.3149 30.7809 78.1108 30.4276L65.9843 9.42372C65.7804 9.0704 65.7271 8.65575 65.8341 8.25594C65.8853 8.06046 65.9747 7.87707 66.0973 7.71638C66.2198 7.5557 66.373 7.42091 66.548 7.31981L73.4575 3.33055C73.6888 3.19664 73.9514 3.12617 74.2187 3.12626C74.3559 3.12645 74.4925 3.14457 74.6251 3.18016C75.0249 3.28739 75.3573 3.5409 75.5614 3.89422L87.6878 24.8977C88.1126 25.6335 87.8599 26.5774 87.1243 27.002Z" fill="url(#paint0_linear_750_4088)"/>
<defs>
<linearGradient id="paint0_linear_750_4088" x1="19.5683" y1="47.1704" x2="71.4505" y2="-4.71184" gradientUnits="userSpaceOnUse">
<stop stop-color="#FC4422"/>
<stop offset="1" stop-color="#FFBB32"/>
</linearGradient>
</defs>
</svg>
