<svg width="91" height="100" viewBox="0 0 91 100" fill="none" xmlns="http://www.w3.org/2000/svg">
<path d="M77.2338 80.3285C78.6573 79.0998 79.6848 77.4768 80.1865 75.6645C80.6881 73.8521 80.6415 71.9318 80.0524 70.146C79.4633 68.3601 78.3582 66.7889 76.8767 65.6308C75.3952 64.4726 73.6037 63.7795 71.7285 63.6389C70.5211 60.5647 67.7595 58.2543 64.3652 57.3602C65.8344 56.0897 66.8799 54.4004 67.3616 52.5188C67.8433 50.6372 67.7382 48.6533 67.0603 46.8332C66.3823 45.013 65.1641 43.4437 63.5688 42.3357C61.9736 41.2277 60.0777 40.634 58.1354 40.6342C56.1931 40.6343 54.2973 41.2284 52.7023 42.3367C51.1073 43.4451 49.8893 45.0146 49.2117 46.8349C48.5341 48.6551 48.4294 50.639 48.9114 52.5205C49.3935 54.4021 50.4394 56.0912 51.9088 57.3613C49.0767 58.109 46.6828 59.8418 45.2654 62.1828C43.8498 59.8408 41.4568 58.1068 38.6207 57.3602C40.0898 56.0897 41.1354 54.4004 41.6171 52.5188C42.0988 50.6372 41.9937 48.6533 41.3157 46.8332C40.6378 45.013 39.4195 43.4437 37.8243 42.3357C36.2291 41.2277 34.3332 40.634 32.3909 40.6342C30.4486 40.6343 28.5528 41.2284 26.9578 42.3367C25.3628 43.4451 24.1448 45.0146 23.4672 46.8349C22.7896 48.6551 22.6848 50.639 23.1669 52.5205C23.649 54.4021 24.6948 56.0912 26.1642 57.3613C22.7717 58.2565 20.0103 60.5662 18.8009 63.6389C16.9256 63.7794 15.134 64.4725 13.6524 65.6307C12.1707 66.7889 11.0656 68.3602 10.4765 70.1462C9.88745 71.9321 9.84087 73.8526 10.3427 75.665C10.8445 77.4774 11.8721 79.1004 13.2959 80.3291C8.66852 81.5559 5.28044 85.409 5.28044 89.9625V98.1289C5.28395 98.6278 5.4851 99.1048 5.83979 99.4556C6.19448 99.8064 6.67378 100.002 7.17263 100H83.3547C83.8537 100.003 84.3334 99.8069 84.6884 99.4561C85.0434 99.1053 85.2447 98.628 85.2482 98.1289V89.9625C85.2482 85.408 81.8603 81.5543 77.2338 80.3285ZM77.7961 73.1317C77.7961 74.4741 77.3981 75.7865 76.6522 76.9027C75.9064 78.019 74.8463 78.889 73.606 79.4028C72.3658 79.9166 71.001 80.051 69.6843 79.7891C68.3676 79.5273 67.1581 78.8808 66.2088 77.9315C65.2595 76.9823 64.613 75.7728 64.3511 74.4561C64.0892 73.1394 64.2236 71.7747 64.7373 70.5343C65.2511 69.294 66.1211 68.2339 67.2373 67.4881C68.3535 66.7422 69.6659 66.3441 71.0084 66.3441C72.8079 66.3462 74.5332 67.0619 75.8057 68.3344C77.0782 69.6068 77.794 71.3321 77.7961 73.1317ZM51.3482 50.1664C51.3481 48.8239 51.746 47.5115 52.4918 46.3952C53.2375 45.2788 54.2976 44.4087 55.5378 43.8948C56.7781 43.381 58.1429 43.2464 59.4596 43.5083C60.7764 43.7701 61.9859 44.4165 62.9353 45.3657C63.8846 46.315 64.5312 47.5244 64.7931 48.8411C65.0551 50.1578 64.9207 51.5227 64.407 52.763C63.8933 54.0033 63.0233 55.0635 61.907 55.8093C60.7908 56.5552 59.4784 56.9533 58.1359 56.9533C56.3365 56.9513 54.6113 56.2356 53.3388 54.9633C52.0663 53.691 51.3504 51.9659 51.3482 50.1664ZM55.0633 59.6891H61.2142C64.4738 59.6891 67.4359 61.3764 68.817 63.8662C67.1099 64.2685 65.5473 65.1349 64.3018 66.3695C63.0562 67.6042 62.1761 69.1591 61.7588 70.8625C61.3415 72.566 61.4032 74.3516 61.937 76.0222C62.4708 77.6928 63.456 79.1833 64.7838 80.3291C61.9269 81.0865 59.5424 82.8439 58.1363 85.151C56.73 82.8432 54.3459 81.0854 51.4892 80.3285C52.8164 79.1827 53.8012 77.6924 54.3347 76.0221C54.8683 74.3519 54.9299 72.5667 54.5128 70.8636C54.0956 69.1606 53.216 67.6059 51.9709 66.3713C50.7259 65.1367 49.1639 64.2702 47.4574 63.8674C48.842 61.3766 51.8066 59.6891 55.0633 59.6891ZM33.7597 97.2658V89.9625C33.7597 85.9328 37.5424 82.6543 42.192 82.6543H48.3418C52.9885 82.6543 56.7683 85.9328 56.7683 89.9625V97.2658H33.7597ZM45.2636 66.3441C46.6061 66.3442 47.9184 66.7423 49.0345 67.4881C50.1507 68.234 51.0206 69.2941 51.5343 70.5343C52.048 71.7746 52.1824 73.1393 51.9205 74.4559C51.6586 75.7726 51.0121 76.982 50.0629 77.9312C49.1136 78.8804 47.9042 79.5269 46.5876 79.7887C45.2709 80.0506 43.9062 79.9162 42.6659 79.4025C41.4257 78.8887 40.3656 78.0188 39.6198 76.9026C38.874 75.7864 38.4759 74.4741 38.4759 73.1317C38.478 71.3321 39.1938 69.6068 40.4663 68.3344C41.7388 67.0619 43.4641 66.3462 45.2636 66.3441ZM25.6037 50.1664C25.6035 48.8239 26.0015 47.5115 26.7472 46.3951C27.493 45.2788 28.5531 44.4087 29.7933 43.8948C31.0336 43.381 32.3984 43.2464 33.7152 43.5083C35.0319 43.7701 36.2415 44.4165 37.1908 45.3658C38.1401 46.3151 38.7867 47.5245 39.0486 48.8413C39.3106 50.158 39.1762 51.5228 38.6624 52.7631C38.1487 54.0035 37.2786 55.0636 36.1624 55.8094C35.0461 56.5553 33.7337 56.9534 32.3912 56.9533C30.5918 56.9513 28.8666 56.2356 27.5942 54.9632C26.3217 53.6909 25.6059 51.9658 25.6037 50.1664ZM29.3185 59.6891H35.4695C38.7291 59.6891 41.6912 61.3764 43.0722 63.8662C41.3652 64.2685 39.8026 65.1349 38.557 66.3695C37.3115 67.6042 36.4314 69.1591 36.0141 70.8625C35.5968 72.566 35.6584 74.3516 36.1922 76.0222C36.7261 77.6928 37.7113 79.1833 39.039 80.3291C36.1816 81.0865 33.7988 82.8439 32.3926 85.151C30.9863 82.8432 28.6021 81.0854 25.7455 80.3285C27.0727 79.1827 28.0575 77.6923 28.5911 76.0219C29.1246 74.3516 29.1862 72.5663 28.7689 70.8633C28.3517 69.1601 27.4719 67.6055 26.2267 66.3709C24.9815 65.1364 23.4193 64.27 21.7127 63.8674C23.0972 61.3766 26.0609 59.6891 29.3185 59.6891ZM12.7314 73.1317C12.7314 71.7892 13.1294 70.4768 13.8753 69.3605C14.6211 68.2443 15.6812 67.3742 16.9215 66.8605C18.1618 66.3467 19.5266 66.2123 20.8433 66.4742C22.16 66.7361 23.3695 67.3825 24.3187 68.3318C25.268 69.2811 25.9145 70.4906 26.1764 71.8073C26.4383 73.124 26.3039 74.4888 25.7901 75.7291C25.2763 76.9694 24.4063 78.0295 23.29 78.7753C22.1738 79.5211 20.8614 79.9192 19.5189 79.9191C17.7194 79.9171 15.9942 79.2013 14.7217 77.9289C13.4493 76.6564 12.7335 74.9312 12.7314 73.1317ZM8.01423 89.9625C8.01423 85.9328 11.7968 82.6543 16.4463 82.6543H22.5972C27.2437 82.6543 31.0236 85.9328 31.0236 89.9625V97.2658H8.01423V89.9625ZM82.5131 97.2658H59.5037V89.9625C59.5037 85.9328 63.2861 82.6543 67.9355 82.6543H74.0865C78.733 82.6543 82.5131 85.9328 82.5131 89.9625V97.2658ZM45.2636 39.2152C49.1417 39.2158 52.9328 38.0663 56.1576 35.9122C59.3824 33.7581 61.896 30.6961 63.3805 27.1134C64.865 23.5308 65.2538 19.5883 64.4977 15.7847C63.7416 11.9811 61.8745 8.48705 59.1326 5.74453C56.3908 3.00202 52.8972 1.13416 49.0937 0.377178C45.2903 -0.379806 41.3477 0.0080795 37.7647 1.49178C34.1817 2.97549 31.1191 5.48837 28.9643 8.71265C26.8094 11.9369 25.6591 15.7278 25.6588 19.6059C25.6642 24.8042 27.7313 29.788 31.4066 33.4642C35.0819 37.1404 40.0654 39.2086 45.2636 39.2152ZM45.2636 2.73458C48.6009 2.73404 51.8634 3.7232 54.6385 5.57698C57.4136 7.43075 59.5766 10.0658 60.854 13.149C62.1314 16.2322 62.4657 19.6249 61.8148 22.8981C61.1638 26.1713 59.5568 29.1779 57.1969 31.5377C54.8371 33.8976 51.8304 35.5045 48.5572 36.1555C45.284 36.8064 41.8913 36.472 38.8082 35.1946C35.725 33.9172 33.0899 31.7541 31.2362 28.979C29.3825 26.2039 28.3933 22.9414 28.3939 19.6041C28.399 15.1316 30.178 10.8437 33.3406 7.68113C36.5032 4.51859 40.7911 2.73965 45.2636 2.73458ZM45.2636 33.5065C48.0127 33.507 50.7001 32.6923 52.9862 31.1655C55.2722 29.6387 57.0542 27.4683 58.1067 24.9287C59.1592 22.3891 59.435 19.5945 58.8993 16.8982C58.3635 14.2018 57.0402 11.7249 55.0967 9.78067C53.1533 7.83641 50.6769 6.51212 47.9808 5.97526C45.2847 5.43839 42.49 5.71307 39.95 6.76455C37.41 7.81604 35.2388 9.5971 33.7111 11.8825C32.1833 14.1679 31.3675 16.8551 31.367 19.6041C31.3709 23.2891 32.8361 26.8222 35.4412 29.4285C38.0463 32.0348 41.5786 33.5016 45.2636 33.5072V33.5065ZM45.2636 8.44356C47.472 8.44302 49.6309 9.09741 51.4672 10.324C53.3036 11.5505 54.735 13.2941 55.5803 15.3342C56.4256 17.3744 56.6469 19.6193 56.2162 21.7853C55.7855 23.9512 54.7222 25.9407 53.1606 27.5022C51.5991 29.0637 49.6095 30.1271 47.4436 30.5577C45.2777 30.9884 43.0327 30.767 40.9926 29.9217C38.9525 29.0763 37.2089 27.6449 35.9824 25.8085C34.7559 23.9721 34.1015 21.8132 34.1021 19.6049C34.1062 16.6459 35.2834 13.8093 37.3757 11.717C39.468 9.62474 42.3047 8.44754 45.2636 8.44356ZM40.8676 16.5766C40.8684 15.6493 41.1616 14.7459 41.7053 13.9949C42.2491 13.2438 43.0158 12.6833 43.8965 12.393V11.2561C43.8965 10.8935 44.0405 10.5457 44.2969 10.2893C44.5533 10.0329 44.901 9.88888 45.2636 9.88888C45.6262 9.88888 45.974 10.0329 46.2304 10.2893C46.4868 10.5457 46.6308 10.8935 46.6308 11.2561V12.3945C47.2684 12.6045 47.8498 12.957 48.3309 13.4252C48.812 13.8933 49.1801 14.4649 49.4074 15.0965C49.5298 15.4379 49.5115 15.814 49.3566 16.1419C49.2017 16.4699 48.9229 16.7228 48.5815 16.8452C48.2401 16.9676 47.8641 16.9493 47.5361 16.7945C47.2082 16.6396 46.9552 16.3608 46.8328 16.0193C46.7311 15.7321 46.5523 15.4783 46.3162 15.2857C46.08 15.0931 45.7954 14.9691 45.4935 14.9273C45.1916 14.8854 44.8841 14.9274 44.6044 15.0485C44.3248 15.1696 44.0838 15.3652 43.9078 15.614C43.7318 15.8628 43.6275 16.1552 43.6064 16.4592C43.5853 16.7632 43.6481 17.0672 43.788 17.338C43.928 17.6087 44.1396 17.8358 44.3998 17.9944C44.6601 18.153 44.9589 18.237 45.2636 18.2373C46.3107 18.2368 47.3235 18.6098 48.1202 19.2892C48.9168 19.9687 49.445 20.91 49.6097 21.944C49.7745 22.978 49.565 24.0368 49.019 24.9302C48.473 25.8235 47.6262 26.4928 46.6308 26.8178V27.9596C46.6308 28.3222 46.4868 28.6699 46.2304 28.9263C45.974 29.1827 45.6262 29.3268 45.2636 29.3268C44.901 29.3268 44.5533 29.1827 44.2969 28.9263C44.0405 28.6699 43.8965 28.3222 43.8965 27.9596V26.8166C43.2591 26.6076 42.6778 26.2562 42.1967 25.7888C41.7156 25.3215 41.3473 24.7507 41.1199 24.1197C41.0593 23.9507 41.0325 23.7713 41.0412 23.592C41.0499 23.4126 41.0938 23.2367 41.1705 23.0743C41.2472 22.9119 41.3551 22.7662 41.4881 22.6455C41.6211 22.5248 41.7765 22.4314 41.9456 22.3708C42.1146 22.3102 42.294 22.2835 42.4734 22.2921C42.6527 22.3008 42.8286 22.3448 42.991 22.4214C43.1535 22.4981 43.2992 22.606 43.4199 22.739C43.5406 22.872 43.6339 23.0274 43.6945 23.1965C43.7968 23.4842 43.9761 23.7383 44.213 23.9309C44.4499 24.1236 44.7352 24.2475 45.0377 24.289C45.3402 24.3305 45.6483 24.2882 45.9283 24.1665C46.2084 24.0448 46.4496 23.8484 46.6256 23.5989C46.8016 23.3494 46.9057 23.0564 46.9265 22.7517C46.9472 22.4471 46.8839 22.1426 46.7433 21.8716C46.6027 21.6005 46.3904 21.3733 46.1294 21.2147C45.8685 21.0561 45.569 20.9724 45.2636 20.9725C44.0982 20.9711 42.9808 20.5076 42.1567 19.6835C41.3326 18.8594 40.8689 17.742 40.8676 16.5766ZM90.4965 72.768C90.4859 73.1233 90.3374 73.4605 90.0824 73.7082C89.8274 73.9558 89.4859 74.0944 89.1304 74.0945H89.0886C88.9091 74.0892 88.7325 74.0485 88.5687 73.9749C88.4049 73.9012 88.2572 73.796 88.1341 73.6653C88.011 73.5345 87.9148 73.3808 87.8512 73.2129C87.7874 73.045 87.7575 72.8662 87.7629 72.6867C88.2607 56.1135 82.5758 42.5002 70.8691 32.1834L72.4191 36.5607C72.4791 36.73 72.5051 36.9095 72.4957 37.0888C72.4863 37.2681 72.4417 37.4439 72.3644 37.606C72.2871 37.7681 72.1786 37.9133 72.0452 38.0335C71.9117 38.1537 71.7559 38.2464 71.5866 38.3064C71.4173 38.3663 71.2379 38.3923 71.0585 38.3829C70.8792 38.3736 70.7035 38.3289 70.5414 38.2516C70.3793 38.1743 70.234 38.0658 70.1138 37.9324C69.9937 37.7989 69.9009 37.6431 69.841 37.4738L66.6687 28.5158C66.5908 28.296 66.5703 28.06 66.6094 27.8301C66.6484 27.6002 66.7456 27.384 66.8917 27.2023C67.0378 27.0205 67.2279 26.8792 67.444 26.7916C67.6602 26.7041 67.8951 26.6733 68.1265 26.7022L77.5553 27.876C77.9153 27.9208 78.2427 28.1068 78.4656 28.393C78.6885 28.6793 78.7885 29.0423 78.7437 29.4024C78.6989 29.7624 78.5129 30.0898 78.2267 30.3127C77.9404 30.5356 77.5774 30.6356 77.2174 30.5908L72.5371 30.0082C84.9793 40.8959 91.0222 55.2697 90.4961 72.7686L90.4965 72.768ZM2.7652 72.6859C2.77062 72.8654 2.74062 73.0443 2.67692 73.2122C2.61322 73.3801 2.51706 73.5338 2.39395 73.6645C2.27083 73.7952 2.12317 73.9004 1.95939 73.9741C1.79561 74.0477 1.61892 74.0884 1.43942 74.0938H1.39763C1.04216 74.0936 0.700723 73.955 0.445714 73.7074C0.190705 73.4597 0.0421728 73.1225 0.0316103 72.7672C-0.494562 55.2662 5.55036 40.8922 17.9965 30.0053L13.3105 30.59C13.1323 30.6122 12.9514 30.5991 12.7782 30.5514C12.605 30.5037 12.4429 30.4223 12.3012 30.3119C12.1595 30.2016 12.0408 30.0644 11.9521 29.9082C11.8634 29.752 11.8063 29.5798 11.7842 29.4016C11.762 29.2233 11.7751 29.0424 11.8228 28.8692C11.8705 28.6961 11.9519 28.534 12.0623 28.3922C12.1726 28.2505 12.3098 28.1319 12.466 28.0432C12.6222 27.9545 12.7944 27.8974 12.9726 27.8752L22.4013 26.7014C22.6328 26.6726 22.8678 26.7034 23.0839 26.791C23.3001 26.8787 23.4902 27.0201 23.6363 27.202C23.7823 27.3838 23.8794 27.6 23.9183 27.83C23.9572 28.06 23.9367 28.2961 23.8586 28.5158L20.6861 37.474C20.565 37.8159 20.3131 38.0957 19.9857 38.2518C19.6584 38.4079 19.2824 38.4276 18.9405 38.3065C18.5986 38.1855 18.3188 37.9335 18.1627 37.6062C18.0066 37.2788 17.9869 36.9028 18.108 36.5609L19.6558 32.19C7.95056 42.5045 2.26677 56.1156 2.76481 72.6865L2.7652 72.6859Z" fill="url(#paint0_linear_750_4114)"/>
<defs>
<linearGradient id="paint0_linear_750_4114" x1="-0.000420935" y1="50.0002" x2="90.5277" y2="50.0002" gradientUnits="userSpaceOnUse">
<stop stop-color="#0056E9"/>
<stop offset="0.033" stop-color="#005DE8"/>
<stop offset="0.191" stop-color="#007BE2"/>
<stop offset="0.359" stop-color="#0092DE"/>
<stop offset="0.539" stop-color="#00A2DA"/>
<stop offset="0.739" stop-color="#00ACD9"/>
<stop offset="1" stop-color="#00AFD8"/>
</linearGradient>
</defs>
</svg>
