<svg width="100" height="82" viewBox="0 0 100 82" fill="none" xmlns="http://www.w3.org/2000/svg">
<path d="M86.3848 46.9805H76.043C73.3984 46.9805 70.7988 47.7695 68.5918 49.2207C65.4609 46.7051 61.4883 45.1992 57.1699 45.1992H42.8301C38.5117 45.1992 34.5391 46.707 31.4082 49.2207C29.2051 47.7715 26.6035 46.9824 23.9551 46.9824H13.6152C6.10742 46.9805 0 53.0879 0 60.5957V70.8105C0 72.6816 1.52539 74.2051 3.39844 74.2051H24.5586V77.6367C24.5586 79.8984 26.4023 81.7383 28.666 81.7383H71.3359C73.5977 81.7383 75.4375 79.8984 75.4375 77.6367V74.2051H96.6035C98.4746 74.2051 99.998 72.6836 99.998 70.8105V60.5957C100 53.0879 93.8926 46.9805 86.3848 46.9805ZM52.2695 62.2754L50 66.2988L47.7305 62.2754L49.0312 48.3223H50.9707L52.2695 62.2754ZM3.40039 71.082C3.25 71.082 3.12305 70.957 3.12305 70.8105V60.5957C3.12305 54.8105 7.83008 50.1035 13.6152 50.1035H23.957C25.7539 50.1035 27.5234 50.5762 29.0801 51.4512C26.2676 54.666 24.5605 58.8711 24.5605 63.4668V71.0801H3.40039V71.082ZM72.3164 77.6367C72.3164 78.168 71.8672 78.6172 71.3359 78.6172H63.3242V71.4688C63.3242 70.6074 62.625 69.9082 61.7637 69.9082C60.9023 69.9082 60.2031 70.6074 60.2031 71.4688V78.6172H39.7969V71.4688C39.7969 70.6074 39.0977 69.9082 38.2363 69.9082C37.375 69.9082 36.6758 70.6074 36.6758 71.4688V78.6172H28.6699C28.127 78.6172 27.6836 78.1777 27.6836 77.6367V63.4688C27.6836 59.1406 29.5117 55.2324 32.4336 52.4688C32.5293 52.3984 32.6172 52.3164 32.6973 52.2207C35.3828 49.7988 38.9375 48.3203 42.832 48.3203H45.8965L44.5781 62.4707C44.5488 62.7871 44.6172 63.1055 44.7734 63.3828L48.6426 70.2422C48.9199 70.7324 49.4395 71.0371 50.002 71.0371C50.5645 71.0371 51.084 70.7344 51.3613 70.2422L55.2305 63.3828C55.3867 63.1055 55.4551 62.7871 55.4258 62.4707L54.1074 48.3203H57.1719C61.0664 48.3203 64.6191 49.7988 67.3066 52.2207C67.3867 52.3164 67.4766 52.3984 67.5703 52.4688C70.4922 55.2324 72.3184 59.1387 72.3184 63.4668V77.6367H72.3164ZM96.877 70.8105C96.877 70.9551 96.75 71.082 96.6055 71.082H75.4395V63.4688C75.4395 58.8711 73.7324 54.6641 70.918 51.4512C72.4766 50.5664 74.2188 50.1055 76.043 50.1055H86.3848C92.1699 50.1055 96.877 54.8125 96.877 60.5977V70.8105ZM81.2148 46.373C87.2344 46.373 92.1328 41.4746 92.1328 35.4551C92.1328 29.4375 87.2344 24.543 81.2148 24.543C75.1973 24.543 70.3027 29.4375 70.3027 35.4551C70.3027 41.4746 75.1973 46.373 81.2148 46.373ZM81.2148 27.6641C85.5137 27.6641 89.0098 31.1582 89.0098 35.4531C89.0098 39.752 85.5137 43.248 81.2148 43.248C76.9199 43.248 73.4258 39.752 73.4258 35.4531C73.4238 31.1602 76.9199 27.6641 81.2148 27.6641ZM18.7852 46.373C24.8047 46.373 29.7031 41.4746 29.7031 35.4551C29.7031 29.4375 24.8047 24.543 18.7852 24.543C12.7676 24.543 7.87305 29.4375 7.87305 35.4551C7.87305 41.4746 12.7695 46.373 18.7852 46.373ZM18.7852 27.6641C23.084 27.6641 26.5801 31.1582 26.5801 35.4531C26.5801 39.752 23.084 43.248 18.7852 43.248C14.4902 43.248 10.9961 39.752 10.9961 35.4531C10.9961 31.1602 14.4902 27.6641 18.7852 27.6641ZM50 43.1504C58.0137 43.1504 64.5332 36.6309 64.5332 28.6172C64.5332 20.6074 58.0137 14.0898 50 14.0898C41.9902 14.0898 35.4727 20.6074 35.4727 28.6172C35.4727 36.6309 41.9902 43.1504 50 43.1504ZM50 17.2129C56.291 17.2129 61.4102 22.3301 61.4102 28.6172C61.4102 34.9082 56.291 40.0273 50 40.0273C43.7109 40.0273 38.5957 34.9082 38.5957 28.6172C38.5957 22.3281 43.7109 17.2129 50 17.2129ZM48.4395 7.03125V1.56055C48.4395 0.697266 49.1387 0 50 0C50.8613 0 51.5605 0.699219 51.5605 1.56055V7.03125C51.5605 7.89453 50.8613 8.5918 50 8.5918C49.1387 8.5918 48.4395 7.89258 48.4395 7.03125ZM58.2207 8.8125L60.9551 4.07812C61.3867 3.33203 62.3418 3.07617 63.0879 3.50781C63.834 3.93945 64.0898 4.89453 63.6582 5.64062L60.9238 10.375C60.6348 10.875 60.1094 11.1563 59.5703 11.1563C59.2968 11.1558 59.0281 11.0838 58.791 10.9473C58.0449 10.5137 57.7891 9.55859 58.2207 8.8125ZM65.2305 17.3848C64.7988 16.6387 65.0547 15.6836 65.8008 15.252L70.5352 12.5176C71.2812 12.0859 72.2363 12.3418 72.668 13.0879C73.0996 13.834 72.8438 14.7891 72.0977 15.2207L67.3633 17.9551C67.1266 18.0925 66.8577 18.1646 66.584 18.1641C66.043 18.1641 65.5195 17.8848 65.2305 17.3848ZM36.3398 5.64062C35.9082 4.89453 36.1641 3.93945 36.9102 3.50781C37.6562 3.07617 38.6113 3.33203 39.043 4.07812L41.7773 8.8125C42.209 9.55859 41.9531 10.5137 41.207 10.9453C40.9703 11.0827 40.7014 11.1548 40.4277 11.1543C39.8887 11.1543 39.3633 10.875 39.0742 10.373L36.3398 5.64062ZM27.332 13.0879C27.7637 12.3418 28.7188 12.0859 29.4648 12.5156L34.2031 15.25C34.9492 15.6816 35.2051 16.6367 34.7754 17.3828C34.4863 17.8828 33.9609 18.1641 33.4219 18.1641C33.1483 18.1636 32.8796 18.0916 32.6426 17.9551L27.9043 15.2207C27.1582 14.7891 26.9023 13.834 27.332 13.0879Z" fill="url(#paint0_linear_750_4062)"/>
<defs>
<linearGradient id="paint0_linear_750_4062" x1="0.000585938" y1="40.8691" x2="99.9994" y2="40.8691" gradientUnits="userSpaceOnUse">
<stop stop-color="#A647FE"/>
<stop offset="0.149" stop-color="#A04CFC"/>
<stop offset="0.341" stop-color="#905AF8"/>
<stop offset="0.558" stop-color="#7571F0"/>
<stop offset="0.791" stop-color="#5191E5"/>
<stop offset="1" stop-color="#29B4D9"/>
</linearGradient>
</defs>
</svg>
