<svg width="74" height="100" viewBox="0 0 74 100" fill="none" xmlns="http://www.w3.org/2000/svg">
<path d="M36.5703 0C16.4049 0 0 16.392 0 36.5414C0 55.4381 30.143 93.7461 33.5799 98.052C33.9382 98.5012 34.3931 98.8639 34.9108 99.1132C35.4285 99.3625 35.9957 99.492 36.5703 99.492C37.1449 99.492 37.7122 99.3625 38.2299 99.1132C38.7476 98.8639 39.2025 98.5012 39.5607 98.052C42.9979 93.7461 73.1406 55.4381 73.1406 36.5414C73.1406 16.392 56.7357 0 36.5703 0ZM36.5703 89.4357C26.3826 76.0678 7.65313 48.9332 7.65313 36.5416C7.65313 20.6131 20.6248 7.65332 36.5703 7.65332C52.5158 7.65332 65.4875 20.6129 65.4875 36.5416C65.4875 48.9332 46.758 76.0678 36.5703 89.4357ZM36.5703 19.6936C27.2691 19.6936 19.702 27.2561 19.702 36.5508C19.702 45.852 27.2691 53.4184 36.5703 53.4184C45.8715 53.4184 53.4387 45.852 53.4387 36.5508C53.4387 27.2563 45.8715 19.6936 36.5703 19.6936ZM36.5703 45.7652C31.4891 45.7652 27.3551 41.6313 27.3551 36.551C27.3551 31.4762 31.4891 27.3469 36.5703 27.3469C41.6516 27.3469 45.7855 31.4762 45.7855 36.551C45.7855 41.6313 41.6516 45.7652 36.5703 45.7652Z" fill="url(#paint0_linear_750_4075)"/>
<defs>
<linearGradient id="paint0_linear_750_4075" x1="65.6227" y1="13.9197" x2="7.51816" y2="72.0242" gradientUnits="userSpaceOnUse">
<stop stop-color="#33CCFF"/>
<stop offset="1" stop-color="#CC00FF"/>
</linearGradient>
</defs>
</svg>
