<svg width="88" height="88" viewBox="0 0 88 88" fill="none" xmlns="http://www.w3.org/2000/svg">
<path d="M85.6989 0.455292C67.1208 -1.88377 49.0176 4.9131 35.2504 18.0069C15.5004 15.299 3.22856 31.0334 1.43168 43.8834C1.25043 44.874 2.16606 45.8256 3.16137 45.6803L17.9801 43.8803C19.0317 44.9319 20.3442 46.2397 21.9832 47.8709L19.4489 52.9803C19.0131 53.8595 18.8643 54.8534 19.0236 55.8216C19.1828 56.7899 19.642 57.6838 20.3364 58.3772L29.1411 67.1819C29.8345 67.8762 30.7284 68.3352 31.6968 68.4942C32.6651 68.6532 33.6589 68.504 34.5379 68.0678L39.6395 65.5381L44.1754 70.0756C44.6676 70.5678 45.4223 70.6709 46.027 70.3444C50.9129 67.6881 58.9457 62.71 66.6473 55.235C67.4911 70.3694 55.6817 80.3194 45.2036 82.5725L45.8942 76.9084C46.1051 74.8553 43.0676 74.4959 42.7942 76.5303L41.8411 84.3584C41.8115 84.5989 41.8383 84.843 41.9194 85.0714C42.0005 85.2997 42.1336 85.5061 42.3083 85.674C42.4829 85.842 42.6943 85.967 42.9256 86.0392C43.1569 86.1113 43.4019 86.1286 43.6411 86.0897C55.7411 84.3959 72.2411 72.66 69.5207 52.3006C81.2723 40.4819 89.8192 20.3381 87.0645 1.81935C87.0232 1.47133 86.8661 1.1473 86.6184 0.899336C86.3707 0.651374 86.0469 0.493881 85.6989 0.452166V0.455292ZM33.1489 65.2678C32.8563 65.4132 32.5255 65.4631 32.2031 65.4104C31.8807 65.3577 31.583 65.2051 31.352 64.974L22.5457 56.1694C22.3144 55.9386 22.1613 55.6411 22.1081 55.3187C22.0548 54.9963 22.1041 54.6654 22.2489 54.3725L24.3161 50.2022C28.3582 54.2522 33.2629 59.1615 37.3082 63.2084L33.1489 65.2694V65.2678ZM83.4911 19.01C78.7286 45.5444 56.1379 61.0975 45.5536 67.0365C40.3973 61.8819 27.5911 49.0475 20.4832 41.9647C22.7832 37.8006 26.5957 32.1631 29.9082 28.2365C31.2051 26.6584 28.8082 24.674 27.5004 26.2428C24.0395 30.3256 19.8848 36.5115 17.5676 40.7819L4.94262 42.3162C6.02387 37.9256 9.34106 28.7584 18.7489 23.8209C25.4536 20.3006 32.1036 20.6694 35.4707 21.1959C35.9473 21.2553 36.4426 21.1475 36.8114 20.8115C49.6864 8.37092 66.5739 1.57873 84.0957 3.42404C84.6164 8.6223 84.4129 13.8677 83.4911 19.01ZM20.4973 67.0756C9.70981 57.4678 0.153557 76.4319 0.00511941 85.8569C-0.0730056 86.7662 0.75512 87.5944 1.66293 87.5147C11.0645 87.3678 29.9832 77.8506 20.4973 67.0756ZM17.552 77.6647C15.1517 79.8111 12.3825 81.5051 9.37856 82.6647C7.42144 83.4184 5.38241 83.9392 3.30356 84.2162C4.00965 78.9091 6.29751 73.9375 9.86918 69.9491C15.4411 63.4334 24.1379 71.999 17.552 77.6647ZM48.9864 20.7772C41.0926 28.5147 46.8114 42.324 57.8629 42.2115C68.9254 42.3053 74.6192 28.5553 66.7426 20.7772C61.8473 15.8819 53.8801 15.8819 48.9864 20.7772ZM64.5332 36.324C55.4489 44.8725 42.6489 32.0662 51.1957 22.9865C60.3348 14.4756 73.0426 27.1865 64.5332 36.324Z" fill="url(#paint0_linear_750_4053)"/>
<defs>
<linearGradient id="paint0_linear_750_4053" x1="0.00043191" y1="43.76" x2="87.5848" y2="43.76" gradientUnits="userSpaceOnUse">
<stop stop-color="#7F00FF"/>
<stop offset="1" stop-color="#E100FF"/>
</linearGradient>
</defs>
</svg>
