<svg width="28" height="28" viewBox="0 0 28 28" fill="none" xmlns="http://www.w3.org/2000/svg">
<path d="M24.9455 0C23.2609 0 21.8909 1.36996 21.8909 3.05455C21.8909 3.58145 22.0248 4.07731 22.2605 4.51055L17.2567 9.5144C16.5451 8.95702 15.6673 8.65411 14.7635 8.65402C13.8596 8.65392 12.9818 8.95666 12.2701 9.51389L8.36589 5.60967C8.55303 5.29935 8.65277 4.9442 8.65454 4.58182C8.65455 3.45876 7.74124 2.54545 6.61818 2.54545C5.49513 2.54545 4.58182 3.45876 4.58182 4.58182C4.58182 5.70487 5.49513 6.61818 6.61818 6.61818C6.99491 6.61818 7.34313 6.50873 7.64604 6.32953L11.5503 10.2337C10.9938 10.9457 10.6915 11.8234 10.6915 12.727C10.6915 13.6307 10.9938 14.5083 11.5503 15.2203L5.10313 21.6679C4.54332 21.1567 3.81268 20.8731 3.05455 20.8727C1.36996 20.8727 0 22.2427 0 23.9273C0 25.6119 1.36996 26.9818 3.05455 26.9818C4.73913 26.9818 6.10909 25.6119 6.10909 23.9273C6.10975 23.4186 5.98266 22.918 5.73949 22.4713L12.2706 15.9401C12.8458 16.3886 13.5314 16.6734 14.2551 16.7644V21.9367C12.8128 22.1801 11.7096 23.4345 11.7096 24.9455C11.7096 26.63 13.0796 28 14.7641 28C16.4487 28 17.8187 26.63 17.8187 24.9455C17.8187 23.435 16.7155 22.1806 15.2732 21.9367V16.7644C15.9969 16.6734 16.6825 16.3886 17.2577 15.9401L21.1619 19.8444C20.9744 20.1548 20.8745 20.5101 20.8727 20.8727C20.8727 21.9958 21.786 22.9091 22.9091 22.9091C24.0321 22.9091 24.9455 21.9958 24.9455 20.8727C24.9455 19.7497 24.0321 18.8364 22.9091 18.8364C22.5324 18.8364 22.1841 18.9458 21.8812 19.125L17.977 15.2208C18.5335 14.5088 18.8358 13.6312 18.8358 12.7275C18.8358 11.8239 18.5335 10.9462 17.977 10.2343L22.8974 5.31389C23.457 5.8252 24.1875 6.10883 24.9455 6.10909C26.63 6.10909 28 4.73913 28 3.05455C28 1.36996 26.63 0 24.9455 0ZM5.6 4.58182C5.6 4.02029 6.05665 3.56364 6.61818 3.56364C7.17971 3.56364 7.63636 4.02029 7.63636 4.58182C7.63636 5.14335 7.17971 5.6 6.61818 5.6C6.05665 5.6 5.6 5.14335 5.6 4.58182ZM3.05455 25.9636C1.93149 25.9636 1.01818 25.0503 1.01818 23.9273C1.01818 22.8042 1.93149 21.8909 3.05455 21.8909C4.1776 21.8909 5.09091 22.8042 5.09091 23.9273C5.09091 25.0503 4.1776 25.9636 3.05455 25.9636ZM16.8 24.9455C16.8 26.0685 15.8867 26.9818 14.7636 26.9818C13.6406 26.9818 12.7273 26.0685 12.7273 24.9455C12.7273 23.8224 13.6406 22.9091 14.7636 22.9091C15.8867 22.9091 16.8 23.8224 16.8 24.9455ZM14.7636 15.7818C13.0791 15.7818 11.7091 14.4119 11.7091 12.7273C11.7091 11.0427 13.0791 9.67273 14.7636 9.67273C16.4482 9.67273 17.8182 11.0427 17.8182 12.7273C17.8182 14.4119 16.4482 15.7818 14.7636 15.7818ZM23.9273 20.8727C23.9273 21.4343 23.4706 21.8909 22.9091 21.8909C22.3476 21.8909 21.8909 21.4343 21.8909 20.8727C21.8909 20.3112 22.3476 19.8545 22.9091 19.8545C23.4706 19.8545 23.9273 20.3112 23.9273 20.8727ZM24.9455 5.09091C23.8224 5.09091 22.9091 4.1776 22.9091 3.05455C22.9091 1.93149 23.8224 1.01818 24.9455 1.01818C26.0685 1.01818 26.9818 1.93149 26.9818 3.05455C26.9818 4.1776 26.0685 5.09091 24.9455 5.09091Z" fill="#FF3424"/>
</svg>
