<svg width="27" height="28" viewBox="0 0 27 28" fill="none" xmlns="http://www.w3.org/2000/svg">
<path d="M25.9033 12.1977C25.8333 12.1566 25.7537 12.1345 25.6725 12.1335C25.5914 12.1325 25.5113 12.1527 25.4403 12.1921L24.1561 12.9057L23.8 0.4536C23.7966 0.332111 23.7459 0.216743 23.6588 0.132032C23.5716 0.0473212 23.4549 -4.76155e-05 23.3333 3.5917e-08H20.0667C19.9451 -4.76155e-05 19.8284 0.0473212 19.7412 0.132032C19.6541 0.216743 19.6034 0.332111 19.6 0.4536L19.1651 15.68L17.7333 16.4733V12.6C17.7333 12.5188 17.7121 12.439 17.6717 12.3685C17.6314 12.298 17.5734 12.2393 17.5034 12.1981C17.4334 12.1569 17.3538 12.1347 17.2726 12.1336C17.1914 12.1326 17.1114 12.1527 17.0403 12.1921L9.33333 16.4733V12.6C9.33329 12.5188 9.31206 12.439 9.27172 12.3685C9.23139 12.298 9.17336 12.2393 9.10337 12.1981C9.03338 12.1569 8.95385 12.1347 8.87264 12.1336C8.79143 12.1326 8.71136 12.1527 8.64033 12.1921L0.240333 16.8588C0.167538 16.8992 0.106867 16.9583 0.0646082 17.03C0.0223497 17.1017 4.28043e-05 17.1834 0 17.2667V27.5333C0 27.6571 0.0491665 27.7758 0.136683 27.8633C0.2242 27.9508 0.342899 28 0.466667 28H25.6667C25.7904 28 25.9091 27.9508 25.9967 27.8633C26.0842 27.7758 26.1333 27.6571 26.1333 27.5333V12.6C26.1333 12.5187 26.1121 12.4388 26.0718 12.3683C26.0314 12.2977 25.9733 12.2389 25.9033 12.1977ZM20.5203 0.933333H22.8797L22.9068 1.86667H20.4937L20.5203 0.933333ZM20.4666 2.8H22.9334L23.2367 13.4162L20.1133 15.1508L20.4666 2.8ZM12.6 27.0667H9.8V24.7333H12.6V27.0667ZM16.3333 27.0667H13.5333V24.7333H16.3333V27.0667ZM25.2 27.0667H17.2667V24.2667C17.2667 24.1429 17.2175 24.0242 17.13 23.9367C17.0425 23.8492 16.9238 23.8 16.8 23.8H9.33333C9.20957 23.8 9.09087 23.8492 9.00335 23.9367C8.91583 24.0242 8.86667 24.1429 8.86667 24.2667V27.0667H0.933333V17.5415L8.4 13.3933V17.2667C8.40004 17.3479 8.42128 17.4277 8.46161 17.4982C8.50194 17.5687 8.55997 17.6274 8.62996 17.6686C8.69995 17.7098 8.77949 17.732 8.86069 17.7331C8.9419 17.7341 9.02198 17.7139 9.093 17.6745L16.8 13.3933V17.2667C16.8 17.3479 16.8213 17.4277 16.8616 17.4982C16.9019 17.5687 16.96 17.6274 17.03 17.6686C17.1 17.7098 17.1795 17.732 17.2607 17.7331C17.3419 17.7341 17.422 17.7139 17.493 17.6745L21.8941 15.2297L23.94 14.0933L25.2 13.3933V27.0667Z" fill="#FF3424"/>
<path d="M6.5335 18.6667H2.80016C2.6764 18.6667 2.5577 18.7158 2.47018 18.8033C2.38266 18.8909 2.3335 19.0096 2.3335 19.1333V21C2.3335 21.1238 2.38266 21.2425 2.47018 21.33C2.5577 21.4175 2.6764 21.4667 2.80016 21.4667H6.5335C6.65726 21.4667 6.77596 21.4175 6.86348 21.33C6.951 21.2425 7.00016 21.1238 7.00016 21V19.1333C7.00016 19.0096 6.951 18.8909 6.86348 18.8033C6.77596 18.7158 6.65726 18.6667 6.5335 18.6667ZM6.06683 20.5333H3.26683V19.6H6.06683V20.5333ZM14.9335 18.6667H11.2002C11.0764 18.6667 10.9577 18.7158 10.8702 18.8033C10.7827 18.8909 10.7335 19.0096 10.7335 19.1333V21C10.7335 21.1238 10.7827 21.2425 10.8702 21.33C10.9577 21.4175 11.0764 21.4667 11.2002 21.4667H14.9335C15.0573 21.4667 15.176 21.4175 15.2635 21.33C15.351 21.2425 15.4002 21.1238 15.4002 21V19.1333C15.4002 19.0096 15.351 18.8909 15.2635 18.8033C15.176 18.7158 15.0573 18.6667 14.9335 18.6667ZM14.4668 20.5333H11.6668V19.6H14.4668V20.5333ZM23.3335 18.6667H19.6002C19.4764 18.6667 19.3577 18.7158 19.2702 18.8033C19.1827 18.8909 19.1335 19.0096 19.1335 19.1333V21C19.1335 21.1238 19.1827 21.2425 19.2702 21.33C19.3577 21.4175 19.4764 21.4667 19.6002 21.4667H23.3335C23.4573 21.4667 23.576 21.4175 23.6635 21.33C23.751 21.2425 23.8002 21.1238 23.8002 21V19.1333C23.8002 19.0096 23.751 18.8909 23.6635 18.8033C23.576 18.7158 23.4573 18.6667 23.3335 18.6667ZM22.8668 20.5333H20.0668V19.6H22.8668V20.5333Z" fill="#FF3424"/>
</svg>
