<svg width="28" height="29" viewBox="0 0 28 29" fill="none" xmlns="http://www.w3.org/2000/svg">
<path d="M24.5268 4.78992C24.5002 4.74895 24.4669 4.71272 24.4284 4.68273C23.1174 3.21002 21.5097 2.03139 19.7108 1.22432C17.9119 0.417247 15.9626 0 13.9909 0C12.0193 0 10.07 0.417247 8.27107 1.22432C6.47217 2.03139 4.86444 3.21002 3.55352 4.68273C3.51688 4.71176 3.48512 4.74647 3.45946 4.78554V4.79648C1.68972 6.82099 0.54046 9.31235 0.149086 11.9727C-0.242288 14.6331 0.140782 17.3498 1.2525 19.7983C2.36422 22.2467 4.15754 24.3231 6.41807 25.7794C8.67861 27.2356 11.3107 28.01 13.9997 28.01C16.6887 28.01 19.3208 27.2356 21.5813 25.7794C23.8418 24.3231 25.6352 22.2467 26.7469 19.7983C27.8586 17.3498 28.2417 14.6331 27.8503 11.9727C27.4589 9.31235 26.3097 6.82099 24.5399 4.79648L24.5268 4.78992ZM24.0893 22.3792C23.0954 21.799 22.0405 21.3303 20.9438 20.9814C21.6239 18.8668 21.983 16.6621 22.009 14.441H27.108C27.0146 17.3502 25.9522 20.1449 24.0893 22.3814V22.3792ZM0.880457 14.441H5.9794C6.00527 16.6628 6.36436 18.8683 7.04469 20.9836C5.94797 21.3325 4.89308 21.8012 3.89914 22.3814C2.03625 20.1449 0.973802 17.3502 0.880457 14.441ZM3.93195 5.59271C4.92099 6.1676 5.9699 6.63264 7.06 6.97956C6.36975 9.10798 6.00543 11.3286 5.9794 13.566H0.880457C0.975791 10.6414 2.05039 7.83363 3.93195 5.59271ZM14.4317 8.0186C16.3533 7.99137 18.2639 7.72388 20.1191 7.22236C20.7739 9.27423 21.1189 11.4123 21.1428 13.566H14.4317V8.0186ZM14.4317 7.14362V0.905006C16.6498 1.15219 18.5879 3.26527 19.8128 6.3977C18.0564 6.86576 16.2492 7.11627 14.4317 7.14362ZM13.5567 7.14362C11.7392 7.11629 9.932 6.86578 8.1756 6.3977C9.40058 3.26527 11.3387 1.15219 13.5567 0.905006V7.14362ZM13.5567 8.0186V13.566H6.85438C6.87544 11.4127 7.21753 9.27468 7.86936 7.22236C9.72454 7.72386 11.6352 7.99134 13.5567 8.0186ZM6.85438 14.441H13.5567V19.9402C11.635 19.9688 9.72433 20.2377 7.86936 20.7408C7.22231 18.7024 6.88028 16.5795 6.85438 14.441ZM13.5567 20.8152V27.1019C11.3299 26.8525 9.37433 24.722 8.1581 21.5655C9.91996 21.0944 11.7332 20.8424 13.5567 20.8152ZM14.4317 20.8152C16.2553 20.8424 18.0685 21.0944 19.8303 21.5655C18.6141 24.722 16.6585 26.8525 14.4317 27.1019V20.8152ZM14.4317 19.9402V14.441H21.1341C21.1079 16.5787 20.7659 18.7009 20.1191 20.7386C18.264 20.2363 16.3534 19.9681 14.4317 19.9402ZM22.009 13.566C21.983 11.3286 21.6187 9.10798 20.9284 6.97956C22.0185 6.63264 23.0675 6.1676 24.0565 5.59271C25.9381 7.83363 27.0127 10.6414 27.108 13.566H22.009ZM23.4637 4.92992C22.5647 5.43422 21.6162 5.84471 20.6331 6.15489C19.826 4.08118 18.706 2.40997 17.3935 1.32718C19.7079 1.95124 21.8073 3.19721 23.4637 4.92992ZM10.5949 1.32718C9.28245 2.40341 8.16467 4.079 7.3575 6.15489C6.37447 5.84471 5.42595 5.43422 4.52694 4.92992C6.18276 3.19755 8.28128 1.9516 10.5949 1.32718ZM4.49413 23.0464C5.39661 22.5364 6.34961 22.1214 7.33781 21.8083C8.14717 23.9039 9.27152 25.5969 10.5927 26.6797C8.26471 26.0518 6.15465 24.7947 4.49413 23.0464ZM17.4001 26.6797C18.7126 25.586 19.8457 23.9039 20.655 21.8083C21.6432 22.1214 22.5962 22.5364 23.4987 23.0464C21.8364 24.7957 19.7239 26.0529 17.3935 26.6797H17.4001Z" fill="#FF3424"/>
</svg>
