<svg width="29" height="28" viewBox="0 0 29 28" fill="none" xmlns="http://www.w3.org/2000/svg">
<path d="M17.4955 10.5632H10.8731C9.60733 10.5645 8.39373 11.0943 7.49869 12.0365C6.60364 12.9786 6.10029 14.2561 6.09912 15.5885V19.0086C6.10029 20.341 6.60364 21.6185 7.49869 22.5607C8.39373 23.5028 9.60733 24.0326 10.8731 24.0339H17.4955C18.7613 24.0326 19.9749 23.5028 20.8699 22.5607C21.765 21.6185 22.2683 20.341 22.2695 19.0086V15.5885C22.2683 14.2561 21.765 12.9786 20.8699 12.0365C19.9749 11.0943 18.7613 10.5645 17.4955 10.5632ZM21.3608 19.0086C21.3596 20.0873 20.952 21.1215 20.2274 21.8843C19.5028 22.6471 18.5203 23.0761 17.4955 23.0774H10.8731C9.84833 23.0761 8.86586 22.6471 8.14123 21.8843C7.4166 21.1215 7.00899 20.0873 7.00782 19.0086V15.5885C7.00899 14.5098 7.4166 13.4756 8.14123 12.7128C8.86586 11.9501 9.84833 11.521 10.8731 11.5198H17.4955C18.5203 11.521 19.5028 11.9501 20.2274 12.7128C20.952 13.4756 21.3596 14.5098 21.3608 15.5885V19.0086Z" fill="#FF3424"/>
<path d="M11.9193 15.5698C11.9193 15.2228 11.8216 14.8837 11.6384 14.5951C11.4553 14.3066 11.195 14.0818 10.8904 13.949C10.5859 13.8162 10.2508 13.7814 9.92747 13.8491C9.60416 13.9168 9.30719 14.0839 9.0741 14.3293C8.84101 14.5746 8.68227 14.8872 8.61796 15.2276C8.55365 15.5679 8.58666 15.9206 8.71281 16.2412C8.83895 16.5618 9.05258 16.8358 9.32666 17.0286C9.60075 17.2213 9.92298 17.3242 10.2526 17.3242C10.6947 17.3242 11.1186 17.1394 11.4311 16.8104C11.7437 16.4814 11.9193 16.0351 11.9193 15.5698ZM10.2526 16.3677C10.1027 16.3677 9.95616 16.3209 9.83151 16.2332C9.70686 16.1456 9.6097 16.021 9.55233 15.8752C9.49496 15.7294 9.47995 15.5689 9.5092 15.4142C9.53845 15.2594 9.61064 15.1172 9.71664 15.0056C9.82265 14.8941 9.95771 14.8181 10.1047 14.7873C10.2518 14.7565 10.4042 14.7723 10.5427 14.8327C10.6812 14.8931 10.7996 14.9953 10.8829 15.1266C10.9662 15.2578 11.0106 15.412 11.0106 15.5698C11.0094 15.7811 10.9292 15.9833 10.7873 16.1327C10.6454 16.282 10.4533 16.3665 10.2526 16.3677ZM18.1162 13.8154C17.7865 13.8154 17.4643 13.9183 17.1902 14.1111C16.9161 14.3039 16.7025 14.5779 16.5764 14.8985C16.4502 15.219 16.4172 15.5718 16.4815 15.9121C16.5458 16.2524 16.7046 16.565 16.9377 16.8104C17.1707 17.0557 17.4677 17.2228 17.791 17.2905C18.1143 17.3582 18.4494 17.3235 18.754 17.1907C19.0585 17.0579 19.3188 16.833 19.502 16.5445C19.6851 16.256 19.7829 15.9168 19.7829 15.5698C19.7829 15.1045 19.6073 14.6583 19.2947 14.3293C18.9821 14.0003 18.5582 13.8154 18.1162 13.8154ZM18.1162 16.3677C17.9663 16.3677 17.8197 16.3209 17.6951 16.2332C17.5704 16.1456 17.4733 16.021 17.4159 15.8752C17.3585 15.7294 17.3435 15.5689 17.3728 15.4142C17.402 15.2594 17.4742 15.1172 17.5802 15.0056C17.6862 14.8941 17.8213 14.8181 17.9683 14.7873C18.1153 14.7565 18.2677 14.7723 18.4062 14.8327C18.5447 14.8931 18.6631 14.9953 18.7464 15.1266C18.8297 15.2578 18.8742 15.412 18.8742 15.5698C18.873 15.7811 18.7928 15.9833 18.6509 16.1327C18.509 16.282 18.3168 16.3665 18.1162 16.3677ZM16.1968 18.9293C14.2199 20.889 12.2606 19.0133 12.172 18.9293C12.1286 18.8864 12.0776 18.853 12.022 18.8308C11.9663 18.8086 11.9071 18.7982 11.8476 18.8002C11.7881 18.8021 11.7296 18.8164 11.6753 18.8422C11.6211 18.8679 11.5722 18.9047 11.5314 18.9503C11.4907 18.996 11.4589 19.0496 11.4378 19.1082C11.4168 19.1668 11.4069 19.2292 11.4088 19.2918C11.4106 19.3544 11.4242 19.416 11.4486 19.4731C11.4731 19.5302 11.508 19.5817 11.5514 19.6246C12.2907 20.3431 13.2538 20.7529 14.2598 20.7771C15.2231 20.7616 16.1418 20.3476 16.8174 19.6246C16.8608 19.5817 16.8957 19.5302 16.9202 19.4731C16.9446 19.416 16.9582 19.3544 16.96 19.2918C16.9619 19.2292 16.952 19.1668 16.931 19.1082C16.9099 19.0496 16.8781 18.996 16.8373 18.9503C16.7966 18.9047 16.7477 18.8679 16.6935 18.8422C16.6392 18.8164 16.5807 18.8021 16.5212 18.8002C16.4617 18.7982 16.4025 18.8086 16.3468 18.8308C16.2912 18.853 16.2402 18.8864 16.1968 18.9293Z" fill="#FF3424"/>
<path d="M25.3726 13.1062C25.165 11.3176 24.3433 9.67054 23.0624 8.47515C21.7815 7.27976 20.1296 6.61851 18.4177 6.61587H14.6278V4.20357C15.1132 4.08873 15.5412 3.78952 15.8301 3.36321C16.119 2.93689 16.2484 2.41341 16.1935 1.89295C16.1386 1.37249 15.9033 0.891621 15.5327 0.542364C15.162 0.193108 14.682 0 14.1845 0C13.6871 0 13.2071 0.193108 12.8364 0.542364C12.4657 0.891621 12.2305 1.37249 12.1756 1.89295C12.1207 2.41341 12.2501 2.93689 12.539 3.36321C12.8278 3.78952 13.2559 4.08873 13.7413 4.20357V6.60188H9.95134C8.23746 6.60493 6.58391 7.26815 5.30267 8.46639C4.02143 9.66464 3.20111 11.3151 2.99648 13.1062C1.3298 13.3489 0 15.1359 0 17.2963C0 19.4566 1.3298 21.2437 2.99648 21.4956C3.20203 23.2864 4.02262 24.9363 5.30366 26.1343C6.58469 27.3324 8.23774 27.9959 9.95134 28H18.4177C20.132 27.9958 21.7856 27.3316 23.0668 26.1326C24.3479 24.9336 25.1681 23.2826 25.3726 21.491C27.057 21.2437 28.3691 19.4613 28.3691 17.2916C28.3691 15.1219 27.0393 13.3489 25.3726 13.1062ZM2.93886 20.5065C1.78637 20.2265 0.908697 18.8967 0.908697 17.2963C0.908697 15.6958 1.79523 14.3707 2.93886 14.0861V20.5065ZM13.0719 2.15054C13.0719 1.91891 13.1372 1.69248 13.2594 1.49988C13.3817 1.30729 13.5555 1.15718 13.7588 1.06854C13.9621 0.979893 14.1858 0.9567 14.4016 1.00189C14.6174 1.04708 14.8157 1.15862 14.9713 1.32241C15.1269 1.4862 15.2328 1.69488 15.2758 1.92206C15.3187 2.14925 15.2967 2.38473 15.2124 2.59873C15.1282 2.81273 14.9856 2.99564 14.8027 3.12433C14.6197 3.25301 14.4046 3.3217 14.1845 3.3217C13.8898 3.32047 13.6075 3.19669 13.3991 2.97732C13.1907 2.75795 13.0731 2.46078 13.0719 2.15054ZM24.5215 20.5951C24.5203 22.2992 23.877 23.9332 22.7327 25.1386C21.5884 26.344 20.0366 27.0223 18.4177 27.0248H9.95134C8.33247 27.0223 6.78064 26.344 5.63634 25.1386C4.49204 23.9332 3.84873 22.2992 3.84756 20.5951V14.0021C3.84873 12.298 4.49204 10.664 5.63634 9.45863C6.78064 8.25322 8.33247 7.57487 9.95134 7.5724H18.4177C20.0366 7.57487 21.5884 8.25322 22.7327 9.45863C23.877 10.664 24.5203 12.298 24.5215 14.0021V20.5951ZM25.4081 20.5065V14.0861C26.596 14.3707 27.4825 15.7005 27.4825 17.2963C27.4825 18.892 26.596 20.2265 25.4302 20.5065H25.4081Z" fill="#FF3424"/>
</svg>
